<?xml version="1.0" encoding="UTF-8" ?>
<!DOCTYPE svg PUBLIC "-//W3C//DTD SVG 1.1//EN" "http://www.w3.org/Graphics/SVG/1.1/DTD/svg11.dtd">
<svg width="1050pt" height="650pt" viewBox="0 0 1050 650" version="1.1" xmlns="http://www.w3.org/2000/svg">
<g id="#41302fff">
<path fill="#41302f" stroke="#41302f" stroke-width="0.09375" opacity="1.00" d=" M 534.07 43.93 C 555.29 38.59 577.19 36.69 599.00 35.78 C 615.32 34.96 631.67 35.17 648.01 35.13 C 673.85 35.28 700.11 38.08 724.35 47.54 C 738.06 52.91 750.47 61.01 762.30 69.65 C 765.99 68.63 769.05 71.11 772.14 72.73 C 795.87 85.71 817.68 102.11 837.01 121.02 C 859.27 142.63 878.18 167.72 892.74 195.12 C 903.26 214.70 912.15 235.08 921.70 255.13 C 932.11 277.90 944.24 300.30 949.18 325.08 C 950.32 331.31 952.07 337.78 950.57 344.10 C 950.17 345.89 948.34 347.08 948.28 348.95 C 948.25 352.76 948.07 356.59 948.46 360.39 C 951.73 362.76 956.10 361.44 959.57 363.28 C 963.29 365.25 966.30 368.84 966.98 373.08 C 967.46 374.08 966.93 376.58 968.92 376.01 C 974.64 376.77 979.26 371.93 984.96 372.66 C 988.31 373.05 991.58 374.93 993.24 377.94 C 994.70 380.42 996.24 382.88 997.40 385.52 C 998.18 387.92 997.97 390.50 998.04 393.00 C 997.96 395.39 998.23 398.03 996.77 400.11 C 995.03 402.79 992.86 405.16 990.88 407.66 C 985.76 412.47 980.20 417.29 973.45 419.60 C 966.44 420.72 959.09 421.70 952.15 419.63 C 950.24 418.82 948.85 417.20 947.24 415.99 C 945.34 434.62 943.16 453.62 935.77 471.01 C 927.50 489.78 911.47 503.97 893.82 513.78 C 870.01 526.61 843.67 533.44 817.92 541.15 C 798.51 546.69 778.88 551.47 759.05 555.24 C 736.91 559.01 714.48 561.37 692.00 561.10 C 681.99 561.04 671.92 560.94 662.05 559.16 C 652.00 557.52 642.17 553.35 634.76 546.24 C 632.31 544.06 630.41 541.03 627.16 539.96 C 624.81 539.03 622.46 538.01 619.95 537.66 C 615.51 537.34 611.66 539.91 607.79 541.69 C 600.13 545.47 591.58 547.83 582.98 546.97 C 579.44 546.93 576.32 545.16 573.01 544.19 C 571.46 544.72 570.56 546.33 569.40 547.42 C 560.59 557.41 547.89 563.35 534.86 565.38 C 528.32 566.67 521.64 566.81 515.00 566.99 C 481.33 567.10 447.66 566.74 414.00 567.00 C 401.12 567.84 388.12 568.34 375.54 571.43 C 368.85 572.99 362.12 574.39 355.57 576.45 C 337.95 581.73 320.29 587.25 302.04 589.93 C 295.43 591.07 288.70 591.41 282.00 591.28 C 279.25 591.32 276.65 590.41 274.12 589.47 C 272.91 592.83 272.37 596.38 271.87 599.91 C 271.37 602.72 271.41 605.68 270.40 608.39 C 269.58 610.41 267.10 609.09 266.51 607.64 C 265.44 604.92 265.02 602.01 264.33 599.19 C 263.10 593.69 262.43 588.09 261.64 582.52 C 258.28 585.69 258.66 590.71 256.43 594.48 C 255.21 596.56 251.41 596.66 250.82 594.03 C 249.99 588.05 249.03 582.08 248.63 576.06 C 246.27 578.91 244.53 582.28 241.79 584.81 C 240.29 586.20 238.04 586.32 236.15 585.84 C 233.89 584.30 233.93 581.34 234.17 578.93 C 235.38 565.90 240.86 553.48 249.04 543.33 C 246.71 545.08 244.33 546.98 241.39 547.55 C 236.57 548.46 231.75 547.06 227.06 546.09 C 229.32 550.33 231.28 555.24 229.64 560.08 C 229.32 561.68 227.32 561.70 226.20 562.53 C 227.21 565.19 228.82 567.63 229.52 570.42 C 230.23 572.60 228.48 575.53 225.99 575.06 C 224.29 575.30 223.33 573.69 222.24 572.73 C 219.35 569.47 215.37 567.54 211.70 565.31 C 210.30 564.37 208.57 564.28 206.95 564.10 C 210.64 566.69 211.61 571.23 214.29 574.63 C 215.62 576.53 217.21 578.57 217.02 581.04 C 217.06 583.14 215.24 585.50 212.97 585.18 C 211.06 584.95 210.06 583.13 208.82 581.91 C 206.86 579.45 203.75 578.48 200.99 577.23 C 197.08 575.71 193.08 574.25 188.91 573.71 C 187.24 574.16 185.65 574.88 183.95 575.27 C 180.29 575.30 176.66 574.59 172.99 574.69 C 162.75 574.77 152.57 576.09 142.45 577.52 C 135.91 577.53 129.28 578.11 122.84 576.61 C 113.76 574.59 104.47 571.92 97.01 566.13 C 91.18 561.63 85.50 556.90 80.35 551.63 C 75.91 547.15 72.94 541.52 69.81 536.11 C 65.98 528.97 61.76 522.00 58.64 514.51 C 56.45 509.29 56.39 503.47 57.37 497.97 C 59.66 488.31 64.77 479.57 70.69 471.70 C 72.54 469.09 75.10 467.08 76.97 464.49 C 74.59 465.61 71.10 466.13 69.37 463.64 C 67.33 460.32 68.94 456.08 71.35 453.40 C 73.05 451.21 75.60 449.95 77.48 447.96 C 74.78 447.55 71.58 447.59 69.65 445.32 C 67.69 443.00 68.42 439.50 70.29 437.37 C 72.91 434.32 76.93 433.18 80.14 430.92 L 80.35 430.27 C 76.30 428.54 72.19 426.85 68.51 424.39 C 66.72 423.31 65.86 420.73 67.13 418.94 C 68.22 416.64 70.74 415.76 72.98 415.03 C 81.21 412.48 89.36 409.66 97.36 406.48 C 105.02 403.62 112.60 400.23 119.13 395.24 C 127.43 388.94 134.73 381.43 141.79 373.80 C 144.42 370.75 147.54 367.37 147.25 363.04 C 146.78 360.27 146.40 356.96 143.94 355.17 C 140.70 352.32 138.43 348.59 135.68 345.31 C 131.41 340.26 129.96 333.46 129.91 327.00 C 129.89 322.23 130.22 317.15 132.92 313.04 C 135.67 308.87 138.70 304.77 142.51 301.49 C 147.14 298.19 152.37 295.32 158.14 294.84 C 161.76 294.44 165.48 293.42 169.10 294.36 C 173.49 295.65 177.64 297.82 181.00 300.94 C 182.76 299.71 184.14 298.03 185.87 296.77 C 191.95 292.34 199.47 290.00 206.99 289.98 C 215.10 289.75 223.08 291.58 230.83 293.81 C 232.32 294.84 233.43 293.20 234.49 292.46 C 240.79 286.73 248.51 282.96 256.09 279.25 C 261.06 276.93 266.05 274.52 271.42 273.27 C 271.95 271.38 272.86 269.44 275.00 269.04 C 288.50 265.21 301.05 258.57 312.56 250.60 C 328.56 239.64 344.16 228.11 359.95 216.83 C 368.42 210.84 376.28 203.90 382.79 195.80 C 388.08 189.30 392.65 182.26 397.32 175.32 C 413.26 151.02 428.33 126.08 446.21 103.13 C 456.94 89.66 468.88 76.95 483.01 66.99 C 498.35 56.11 515.91 48.64 534.07 43.93 M 556.81 47.43 C 540.97 49.90 525.18 53.70 510.64 60.61 C 507.77 62.05 504.53 62.86 502.02 64.92 C 498.28 66.70 494.89 69.10 491.44 71.36 C 466.44 88.55 447.49 112.94 431.36 138.29 C 422.29 151.70 413.94 165.65 404.87 179.09 C 398.03 189.60 390.66 199.88 381.61 208.62 C 373.92 216.50 364.79 222.72 355.92 229.16 C 349.36 233.86 342.81 238.59 336.24 243.28 C 323.83 252.14 311.54 261.32 297.89 268.22 C 295.60 269.33 293.15 270.14 291.03 271.57 C 303.66 272.00 315.99 275.11 328.10 278.49 C 329.20 278.66 330.39 279.34 331.49 278.90 C 333.51 280.50 336.03 281.31 338.54 281.76 C 339.03 279.22 339.42 276.67 339.82 274.13 C 342.09 272.65 343.23 270.00 345.28 268.26 C 350.74 263.26 357.37 259.45 364.50 257.41 C 365.98 256.91 367.53 256.51 368.81 255.56 C 371.42 255.99 374.08 256.06 376.70 256.46 C 380.33 257.17 383.52 259.31 386.25 261.74 C 388.48 263.62 389.47 266.47 391.33 268.66 C 394.84 272.29 395.34 277.66 398.23 281.71 L 399.09 281.90 C 399.63 284.54 400.23 287.20 401.41 289.64 C 401.01 294.14 401.46 298.80 399.70 303.09 C 398.22 308.83 392.82 312.00 389.51 316.56 C 388.57 318.07 386.37 319.09 386.26 320.89 C 385.50 321.91 383.73 323.49 385.30 324.69 C 386.32 325.95 387.46 327.12 388.46 328.41 C 394.63 337.59 401.16 346.51 407.38 355.66 C 409.32 358.04 410.68 361.12 413.60 362.49 C 419.29 365.44 425.84 366.20 432.13 366.74 C 434.81 369.26 439.36 367.53 442.11 369.84 C 444.11 372.86 447.66 374.31 449.61 377.37 C 453.43 382.92 456.56 389.21 457.10 396.02 C 457.86 402.55 458.52 409.30 456.56 415.69 C 454.86 421.18 452.94 426.60 450.87 431.96 C 450.15 433.98 448.40 435.51 447.86 437.58 C 445.66 439.77 443.20 441.97 442.17 444.99 C 438.55 456.24 429.16 464.63 419.00 470.07 C 416.79 471.39 414.02 472.10 412.42 474.25 C 410.66 473.82 409.12 474.87 407.68 475.68 C 401.15 479.83 393.77 482.39 386.41 484.61 C 381.32 487.13 375.47 484.01 370.30 486.44 C 366.89 485.88 363.42 486.08 359.99 486.14 C 354.65 486.27 349.28 485.90 343.99 486.82 C 338.92 487.70 333.34 485.95 328.64 488.59 C 326.08 488.21 323.53 489.05 321.00 489.36 C 312.64 491.00 304.35 493.55 296.92 497.78 C 291.41 501.54 285.89 505.41 281.24 510.23 C 275.68 515.68 270.05 521.07 264.76 526.77 C 262.82 529.20 260.57 531.49 259.30 534.37 C 259.66 534.65 260.39 535.22 260.75 535.50 C 261.41 538.35 258.40 540.21 257.30 542.55 C 253.17 548.68 248.65 554.70 246.00 561.68 C 244.35 564.83 243.33 568.38 243.18 571.94 C 245.04 568.86 247.36 566.07 249.07 562.91 C 252.31 559.99 255.19 555.84 259.80 555.16 C 258.75 559.19 257.42 563.15 256.60 567.25 C 255.62 571.41 255.16 575.67 255.37 579.95 C 255.61 579.84 256.11 579.62 256.36 579.50 C 257.27 576.28 258.64 573.23 260.35 570.35 C 262.96 567.82 265.51 564.80 269.23 563.96 C 269.13 568.19 267.28 572.37 268.26 576.68 C 266.48 579.67 267.50 583.59 267.53 586.94 C 268.98 584.30 269.31 581.23 270.27 578.41 L 270.52 578.62 C 271.41 573.75 274.40 569.66 275.83 564.96 C 278.07 563.96 278.50 560.97 280.85 560.11 C 282.11 563.55 280.58 567.12 279.51 570.40 C 278.46 573.80 276.94 577.09 276.29 580.61 C 279.59 582.27 283.33 582.82 286.99 582.93 C 293.01 582.96 299.09 583.19 305.01 581.90 C 326.75 577.83 347.53 569.95 368.98 564.64 C 378.85 562.34 388.92 560.91 399.01 559.93 C 403.70 560.10 408.34 559.53 413.00 559.05 C 450.00 558.90 487.00 558.92 524.00 558.82 C 528.73 558.89 533.37 557.80 538.02 557.03 C 543.65 556.12 548.64 553.16 553.60 550.51 C 557.79 548.24 560.85 544.50 564.27 541.27 C 566.47 539.11 568.42 536.69 570.14 534.12 C 573.40 527.61 577.63 521.52 579.52 514.39 C 581.52 511.24 583.11 507.76 583.56 504.01 C 584.12 497.31 585.93 490.75 586.06 484.00 C 586.15 475.67 586.21 467.33 585.98 459.00 C 583.03 432.25 579.03 405.64 575.24 379.00 C 574.90 376.23 574.97 373.43 574.41 370.69 C 575.17 368.75 577.35 369.05 579.03 368.67 C 583.91 376.23 582.40 385.58 584.09 394.01 C 586.15 408.38 588.60 422.69 590.95 437.02 C 591.15 442.04 592.37 446.96 592.23 452.00 C 592.37 455.68 593.32 459.30 593.14 463.01 C 592.98 471.00 593.68 479.07 592.37 487.00 C 591.95 496.51 589.84 505.88 587.26 515.02 C 585.36 519.82 583.62 524.69 581.38 529.34 C 579.81 532.59 576.47 535.57 577.32 539.50 C 582.44 541.68 588.40 541.09 593.62 539.51 C 602.58 536.65 610.88 531.68 620.29 530.31 C 621.42 528.98 620.56 527.29 619.93 525.97 C 614.02 514.82 609.89 502.63 608.51 490.05 C 607.21 482.78 607.87 475.35 607.72 468.00 C 607.46 460.00 609.03 452.11 610.34 444.26 C 613.30 431.19 617.37 418.31 623.18 406.22 C 625.30 400.94 627.84 395.83 630.81 390.98 C 634.64 383.63 638.96 376.53 643.49 369.59 C 644.87 366.97 645.96 364.18 647.75 361.79 C 649.88 358.31 653.10 355.68 655.16 352.14 C 664.01 339.70 673.19 327.50 682.19 315.16 C 684.12 312.66 685.05 309.53 687.20 307.19 C 689.13 305.05 690.61 302.58 691.91 300.02 C 695.94 292.43 699.22 284.11 699.54 275.44 C 699.95 274.26 700.51 273.16 701.21 272.14 C 702.37 271.81 703.54 271.85 704.72 272.25 C 705.88 277.85 704.49 283.56 703.05 288.97 C 699.68 301.27 692.56 312.00 685.44 322.41 C 676.94 334.85 667.35 346.62 660.20 359.94 C 657.85 361.06 657.09 363.72 655.57 365.63 C 653.82 367.86 651.69 369.79 650.19 372.21 C 644.27 381.26 638.19 390.46 634.90 400.84 C 633.02 401.64 632.56 404.02 631.58 405.64 C 629.07 411.29 626.04 416.87 624.79 422.95 C 619.00 434.11 617.01 446.67 615.35 458.99 C 614.79 465.31 615.29 471.67 615.18 478.01 C 614.93 486.41 616.20 494.94 619.34 502.76 C 620.02 504.64 620.07 506.67 620.49 508.62 C 623.79 519.18 629.43 528.96 636.77 537.23 C 639.57 540.58 643.80 542.11 646.90 545.12 C 655.77 550.92 666.64 552.33 677.00 552.84 C 688.00 552.64 699.08 553.48 710.00 551.90 C 713.52 551.71 717.08 552.04 720.59 551.44 C 725.02 550.57 729.59 551.01 734.02 550.06 C 740.71 549.62 747.31 548.39 753.95 547.53 C 771.13 544.81 788.31 541.79 805.02 536.89 C 831.40 530.14 857.15 520.99 882.02 509.92 C 887.24 507.17 892.69 504.85 897.75 501.78 C 903.61 497.70 909.27 493.31 914.77 488.76 C 918.82 483.71 923.33 478.85 925.81 472.77 C 934.03 455.51 937.09 436.31 938.59 417.42 C 939.84 411.93 938.78 406.27 939.69 400.75 C 940.48 396.21 939.94 391.58 940.09 387.00 C 940.21 374.66 939.86 362.33 940.17 350.00 C 940.06 348.32 941.13 346.94 941.78 345.48 L 942.99 345.47 C 943.19 340.65 943.34 335.75 942.31 331.01 C 940.29 321.26 938.93 311.23 934.88 302.04 C 930.32 290.33 924.40 279.24 919.34 267.75 C 911.66 251.94 904.56 235.86 896.69 220.13 C 895.13 217.22 894.11 213.90 892.11 211.29 C 891.09 208.37 889.47 205.73 888.03 203.02 C 880.78 189.56 872.99 176.35 863.97 163.99 C 862.73 162.33 861.74 160.46 860.17 159.09 C 859.22 157.32 857.93 155.78 856.70 154.21 C 849.03 144.46 840.88 135.05 831.97 126.41 C 819.61 114.24 806.35 102.70 791.22 94.10 C 794.47 98.12 798.90 101.02 802.11 105.07 C 803.53 107.68 800.20 108.55 798.30 107.57 C 786.57 103.37 778.64 93.23 768.86 86.06 L 769.19 85.22 L 768.71 84.22 L 767.66 83.88 L 766.87 84.33 C 765.65 83.09 764.31 81.98 762.85 81.06 L 763.20 80.23 L 762.75 79.21 L 761.70 78.86 L 760.92 79.29 C 745.49 66.75 727.95 56.42 708.89 50.48 C 702.13 48.54 695.28 46.56 688.21 46.32 C 686.86 45.86 685.45 45.59 684.05 45.45 C 676.72 44.75 669.37 44.08 662.01 44.01 C 642.67 43.80 623.33 43.77 603.99 43.99 C 602.10 44.01 600.20 44.03 598.35 44.31 C 584.45 44.13 570.58 45.61 556.81 47.43 M 275.07 280.31 C 266.82 282.32 259.09 285.93 251.48 289.58 C 249.51 290.61 247.29 291.37 245.85 293.16 C 244.75 293.64 242.91 293.58 242.73 295.14 L 241.80 295.10 C 233.47 301.74 227.27 311.08 224.52 321.39 C 223.94 323.49 222.55 326.40 219.99 326.14 C 217.83 326.24 217.22 323.68 217.10 322.01 C 217.18 315.27 222.79 310.22 223.83 303.80 C 224.90 302.43 226.59 301.31 226.79 299.45 C 225.49 299.24 224.14 298.96 222.85 299.25 C 215.25 298.68 207.59 297.42 199.98 298.46 C 193.07 299.82 187.03 304.44 183.73 310.63 C 182.50 311.59 181.37 313.19 181.56 314.81 C 180.51 315.78 179.47 316.80 178.66 318.00 C 179.09 320.14 181.44 321.63 180.85 324.03 C 181.32 326.65 178.30 327.31 176.40 326.50 C 173.14 325.21 170.22 323.18 166.93 321.97 C 162.86 320.19 158.31 320.62 153.99 320.67 C 151.84 320.62 149.47 321.55 148.50 323.60 C 146.94 326.49 146.18 329.75 145.81 333.00 C 145.22 337.05 146.93 340.96 146.71 345.02 C 146.33 347.99 149.35 350.63 152.17 350.72 C 152.76 352.81 152.14 354.88 151.94 356.97 C 152.15 359.98 153.20 362.97 152.68 366.00 C 151.70 371.63 148.73 376.74 144.82 380.85 C 140.99 385.64 136.56 389.91 132.17 394.18 C 126.50 398.86 121.31 404.29 114.65 407.59 C 103.69 412.68 92.29 416.76 81.16 421.44 C 84.74 423.71 89.05 424.37 92.84 426.20 C 93.60 427.86 92.60 429.56 91.96 431.07 C 89.94 432.12 88.23 433.80 87.10 435.78 C 88.78 436.53 90.56 437.02 92.21 437.82 C 93.25 438.87 92.76 440.63 92.75 441.98 C 92.04 444.50 89.95 446.37 89.10 448.86 C 90.88 449.16 92.21 447.41 93.74 446.75 C 96.03 445.12 99.33 444.56 101.65 446.42 C 103.30 447.44 102.23 450.31 104.01 451.14 C 107.04 451.59 110.07 450.95 113.06 450.49 C 116.40 449.84 119.70 450.91 123.01 451.22 C 128.23 451.70 133.04 454.05 137.66 456.40 C 141.54 458.32 144.35 461.77 146.79 465.26 C 147.68 466.63 149.19 467.55 150.82 467.73 C 153.18 466.19 151.73 462.96 152.69 460.73 C 153.78 458.13 155.32 455.40 158.03 454.24 C 162.18 452.40 165.68 449.35 169.95 447.75 C 173.87 446.25 177.25 443.68 180.97 441.77 C 187.63 437.43 195.86 436.10 202.14 431.12 C 204.06 429.67 205.07 427.42 206.67 425.68 C 208.86 423.45 212.01 422.45 214.16 420.16 C 217.12 416.84 215.32 411.70 212.84 408.69 C 210.10 401.33 206.47 394.32 202.47 387.57 C 201.45 385.96 201.03 383.87 202.30 382.26 C 203.55 382.00 204.95 382.10 205.80 383.20 C 208.83 386.00 210.81 389.68 212.74 393.27 C 213.34 394.06 213.66 395.50 214.84 395.63 C 215.15 398.98 217.19 401.77 218.33 404.86 C 220.18 409.51 222.57 414.39 221.51 419.54 C 219.49 425.08 214.34 428.43 209.97 431.98 C 205.62 436.89 200.09 440.78 193.95 443.11 C 184.06 446.39 175.60 452.68 166.41 457.42 C 163.71 458.86 160.75 460.50 159.47 463.45 C 158.97 466.04 160.13 468.62 161.33 470.86 C 169.20 475.34 178.33 478.50 184.29 485.68 C 187.81 489.87 192.03 493.54 196.99 495.92 C 199.34 496.77 201.96 496.89 204.08 498.35 C 211.70 500.57 219.06 496.68 225.86 493.74 C 226.94 493.07 228.64 492.75 228.95 491.34 C 223.33 487.54 218.60 482.32 215.52 476.26 C 213.94 476.07 212.31 476.33 210.90 477.07 C 202.76 477.82 194.57 477.79 186.41 477.42 C 183.78 476.64 181.21 475.60 178.43 475.43 C 176.15 474.40 175.15 471.67 174.45 469.42 C 173.55 465.39 173.17 461.08 174.28 457.05 C 175.46 453.94 178.14 451.60 181.06 450.16 C 192.32 444.71 204.45 441.42 216.55 438.47 C 222.37 437.15 227.95 434.65 233.97 434.39 C 237.84 434.18 242.12 434.17 245.36 436.63 C 247.11 438.27 246.67 440.87 246.56 443.01 C 246.43 445.28 244.53 446.84 243.90 448.94 C 240.50 451.51 238.47 455.54 234.54 457.50 C 233.70 463.18 230.77 468.77 225.64 471.68 C 224.39 472.71 222.30 473.16 221.84 474.87 C 223.39 478.80 227.03 481.25 230.20 483.78 C 232.32 485.59 235.04 486.40 237.70 487.00 L 237.53 486.16 C 241.04 484.45 243.55 488.27 246.96 488.13 C 250.49 488.12 253.81 486.70 257.17 485.80 C 265.23 483.53 272.59 479.46 280.34 476.41 C 284.60 474.23 288.39 471.11 291.49 467.48 C 294.26 464.28 297.83 461.70 299.71 457.81 C 302.56 452.05 305.26 445.84 305.08 439.29 C 302.27 438.07 299.36 437.13 296.39 436.45 C 295.09 436.14 293.44 435.50 293.22 434.00 C 293.46 432.68 294.58 431.50 295.97 431.42 C 299.87 430.99 303.88 431.28 307.63 432.51 C 310.98 433.57 314.58 434.39 317.39 436.64 C 319.59 438.50 321.29 441.89 319.59 444.63 C 318.94 446.01 317.19 446.32 315.87 445.84 C 314.75 444.66 314.00 442.93 312.19 442.73 C 311.53 446.27 310.58 449.75 309.86 453.29 C 309.04 453.64 308.93 455.47 308.38 456.37 C 304.35 467.09 295.40 474.77 286.58 481.56 C 283.59 483.64 279.86 484.03 276.62 485.57 C 269.01 489.03 261.33 492.75 252.98 494.01 C 249.72 494.60 246.42 494.16 243.15 494.27 C 240.27 499.44 242.78 506.31 247.42 509.62 C 250.47 512.20 254.56 512.93 257.78 515.22 C 258.68 516.86 258.43 519.94 256.02 519.89 C 246.96 520.13 238.22 513.61 235.81 504.88 C 235.01 502.33 235.07 499.62 234.79 496.99 C 226.61 501.68 217.89 506.32 208.22 506.47 C 208.06 508.82 209.33 510.88 210.07 513.04 C 210.88 515.07 210.97 517.29 211.53 519.40 C 215.79 521.21 219.52 524.00 223.21 526.76 C 228.05 530.60 233.49 534.46 235.61 540.56 C 238.66 541.87 242.16 540.39 245.02 538.99 C 246.71 537.95 248.68 538.51 250.54 538.46 C 253.49 529.68 259.18 522.16 265.71 515.72 C 277.18 503.60 289.51 491.18 305.63 485.58 C 307.87 484.63 310.87 484.80 312.45 482.69 L 313.18 482.84 C 320.18 483.15 326.99 480.63 334.00 480.79 C 338.37 480.98 342.63 479.66 347.00 479.87 C 349.41 479.73 352.00 480.20 354.31 479.33 C 354.98 475.36 356.13 471.29 355.75 467.24 C 354.60 467.00 353.48 467.08 352.40 467.48 C 345.45 470.62 338.34 473.35 331.36 476.40 C 328.88 477.55 325.01 478.11 323.74 475.01 C 323.60 470.95 327.38 468.58 329.47 465.59 C 331.46 462.59 334.17 460.22 336.73 457.73 C 338.77 455.91 339.35 453.10 340.99 451.00 C 342.04 449.62 343.13 448.28 343.98 446.78 C 346.31 446.01 347.28 442.72 349.98 442.97 C 351.88 442.95 351.71 445.35 352.36 446.58 C 349.89 448.65 349.73 452.26 347.81 454.77 C 345.55 458.69 341.51 461.11 339.08 464.88 C 339.55 464.97 340.50 465.15 340.97 465.25 C 347.57 463.20 353.58 459.75 359.75 456.73 C 361.81 455.65 364.58 456.08 365.62 458.34 C 366.33 462.68 363.21 466.61 363.26 470.78 L 363.97 471.29 C 366.98 471.14 369.71 469.73 372.37 468.44 C 375.23 466.95 378.37 465.94 380.91 463.90 C 383.23 462.28 385.20 460.23 387.37 458.43 C 388.77 458.10 390.26 458.15 391.69 458.38 C 393.71 459.93 393.54 462.70 394.07 464.95 C 394.26 467.03 397.16 468.16 398.67 466.66 C 401.64 463.95 405.80 462.62 407.94 459.05 C 411.53 453.72 415.84 448.80 421.14 445.10 C 423.29 443.65 423.70 440.88 424.57 438.63 C 425.44 435.37 427.38 432.19 426.63 428.71 C 428.14 426.88 429.47 424.89 431.22 423.26 C 432.38 425.23 434.55 427.17 433.66 429.71 C 431.89 436.99 429.48 444.19 425.63 450.66 C 423.79 454.29 418.33 452.80 416.43 456.37 C 414.61 459.43 411.90 462.13 411.12 465.68 C 416.46 464.18 420.97 460.66 425.41 457.46 C 428.08 455.78 429.54 452.90 431.74 450.73 C 432.62 449.62 434.22 448.65 433.92 447.01 C 433.75 444.95 431.80 442.46 433.77 440.75 C 436.52 437.81 439.26 434.80 441.31 431.30 C 445.15 423.98 449.05 416.37 449.87 408.01 C 450.11 400.61 450.74 392.46 446.32 386.04 C 446.18 385.67 445.90 384.91 445.76 384.53 L 445.17 384.16 C 444.12 380.56 441.09 378.01 437.92 376.29 C 436.29 376.00 434.64 376.06 433.01 376.00 C 426.52 375.90 420.16 374.29 414.08 372.11 C 410.80 370.95 407.60 369.35 405.09 366.90 C 402.49 364.38 400.86 361.11 398.72 358.24 C 392.07 349.73 386.94 340.13 380.30 331.61 C 380.07 329.19 376.35 328.19 375.84 331.09 C 372.74 331.71 369.41 332.84 366.32 331.67 C 366.23 331.27 366.04 330.46 365.95 330.05 C 368.38 326.24 372.43 323.76 375.16 320.17 C 378.15 313.48 385.06 309.86 389.16 303.99 C 391.64 299.59 393.40 294.21 391.81 289.21 C 389.30 283.86 383.51 280.94 377.97 279.81 C 374.93 280.19 371.88 280.79 368.95 281.68 C 363.84 284.33 358.94 287.74 355.45 292.38 C 354.02 294.62 353.84 299.23 350.05 298.21 C 348.45 296.38 347.01 294.30 344.77 293.20 C 340.61 290.97 336.68 288.19 332.09 286.91 C 328.46 285.90 324.90 284.25 321.08 284.26 C 315.84 282.92 310.60 281.58 305.30 280.51 C 303.97 280.36 302.56 279.83 301.25 280.28 C 300.33 278.93 298.46 279.40 297.09 279.13 C 289.75 278.92 282.22 278.29 275.07 280.31 M 948.06 368.09 C 947.54 370.72 950.13 371.98 952.04 373.01 C 954.73 374.33 957.78 375.52 960.83 374.96 C 960.16 372.36 958.34 370.10 955.98 368.85 C 953.52 367.70 950.69 367.87 948.06 368.09 M 948.92 379.87 C 948.22 384.53 948.90 389.24 948.60 393.93 C 948.28 399.13 947.69 404.37 948.14 409.59 C 950.56 409.96 952.83 410.86 955.04 411.92 C 957.32 412.38 959.68 412.20 962.01 412.25 C 966.00 412.21 970.19 412.52 973.97 410.92 C 976.80 409.94 978.82 407.63 981.13 405.84 C 983.27 404.09 985.88 402.87 987.60 400.64 C 989.48 398.14 991.41 395.28 990.99 391.99 C 991.02 387.42 987.98 383.79 985.48 380.27 C 982.84 379.69 980.39 381.18 977.99 382.02 C 974.63 383.53 970.86 382.89 967.34 383.45 C 966.23 384.54 965.24 386.63 963.35 385.67 C 961.98 384.59 960.87 382.99 958.98 382.90 C 955.45 382.44 952.33 380.61 948.92 379.87 M 91.75 465.64 C 88.03 466.91 84.54 468.95 81.73 471.72 C 76.32 477.16 72.17 483.65 68.46 490.32 C 63.53 498.79 64.07 509.78 68.75 518.26 C 74.59 527.94 79.41 538.43 87.26 546.74 C 89.99 549.34 92.50 552.17 95.34 554.66 C 104.36 562.11 115.32 567.52 126.98 569.05 C 139.08 569.88 151.02 567.41 163.00 566.21 C 166.76 565.76 171.29 567.22 174.50 564.75 C 177.01 564.58 179.53 564.16 182.05 564.36 C 184.72 564.51 187.22 565.60 189.88 565.85 C 192.95 567.47 196.62 568.39 200.11 568.12 C 199.49 565.75 197.17 564.46 195.79 562.60 C 195.80 561.57 195.16 560.40 194.00 560.49 C 188.48 559.76 182.95 559.09 177.47 558.11 C 177.45 556.38 176.81 554.51 177.93 552.97 C 178.71 551.01 181.21 551.16 182.58 549.85 C 190.13 549.81 197.37 552.21 204.44 554.42 C 208.50 555.88 212.63 557.14 216.64 558.74 C 214.62 556.04 212.74 553.23 210.62 550.61 C 209.49 549.58 208.43 548.26 206.85 547.98 C 203.40 547.42 200.07 546.36 196.75 545.31 C 195.06 544.79 195.25 542.80 195.02 541.46 C 195.87 541.45 196.39 541.00 196.59 540.11 C 198.05 539.60 200.36 539.80 200.98 538.00 C 201.43 536.41 203.75 536.66 204.87 537.29 C 208.03 538.98 210.58 541.55 213.55 543.53 C 216.45 545.97 218.90 549.11 222.15 551.03 C 221.02 547.89 219.04 545.12 216.82 542.67 C 212.45 537.56 206.70 533.90 200.49 531.42 C 200.14 530.62 199.22 529.87 198.83 529.00 C 198.43 526.40 201.53 524.62 203.81 525.40 C 207.94 525.94 210.96 529.37 215.02 529.99 C 212.80 526.88 209.26 525.09 206.34 522.73 C 204.98 517.04 202.08 511.92 199.05 506.98 C 196.89 503.27 192.30 502.47 189.33 499.68 C 188.02 498.45 186.63 497.29 184.92 496.68 C 181.57 495.31 179.91 491.89 177.75 489.23 C 175.91 486.80 172.83 486.00 170.23 484.65 C 167.17 483.23 164.78 480.69 161.62 479.46 C 155.00 476.65 147.70 476.32 140.84 474.34 C 138.72 473.64 136.58 472.56 135.21 470.74 C 134.41 468.89 135.31 466.96 135.59 465.11 C 133.69 463.10 130.67 462.59 128.16 461.63 C 122.36 459.51 116.10 459.58 110.03 459.89 C 103.58 460.46 97.77 463.54 91.75 465.64 M 385.29 468.33 C 382.68 469.60 380.35 471.38 377.81 472.77 C 373.76 475.11 369.09 476.14 365.15 478.70 C 370.37 478.24 375.60 477.70 380.72 476.57 C 383.80 475.86 387.07 475.53 389.87 473.97 C 389.09 472.00 388.32 470.03 387.65 468.04 C 387.06 468.11 385.88 468.26 385.29 468.33 Z" />
<path fill="#41302f" stroke="#41302f" stroke-width="0.09375" opacity="1.00" d=" M 650.94 296.06 C 651.31 293.00 653.51 289.81 656.94 290.16 C 658.33 289.63 658.48 291.70 658.36 292.58 C 657.11 296.63 656.72 300.86 655.66 304.95 C 654.10 316.41 651.25 327.64 649.00 338.98 C 648.10 342.35 646.59 345.54 645.93 348.98 C 644.81 353.43 644.34 358.86 639.91 361.38 C 638.97 360.43 638.63 359.31 638.89 358.01 C 640.66 343.77 644.75 329.98 647.58 315.93 C 649.38 309.43 650.04 302.72 650.94 296.06 Z" />
<path fill="#41302f" stroke="#41302f" stroke-width="0.09375" opacity="1.00" d=" M 592.23 301.97 C 594.13 301.17 595.93 302.33 596.95 303.91 C 601.25 309.81 606.03 315.75 607.72 323.02 C 609.06 329.25 610.08 335.60 610.09 342.00 C 610.10 346.70 608.94 351.32 608.96 356.03 C 608.93 360.45 608.99 365.01 607.39 369.22 C 606.02 372.73 604.87 376.34 603.45 379.84 C 601.00 380.20 600.65 377.07 599.74 375.52 C 601.03 371.82 600.69 367.85 600.73 364.01 C 600.73 357.59 602.69 351.39 602.92 344.99 C 603.29 336.45 602.20 327.76 599.27 319.72 C 597.15 315.21 593.68 311.46 591.85 306.79 C 591.94 305.18 592.02 303.57 592.23 301.97 Z" />
<path fill="#41302f" stroke="#41302f" stroke-width="0.09375" opacity="1.00" d=" M 225.29 350.40 C 231.52 348.85 237.96 350.35 244.01 351.99 C 248.93 353.34 253.88 355.99 256.35 360.65 C 257.91 363.70 259.46 367.18 258.60 370.67 C 257.56 372.28 256.13 374.21 253.99 374.14 C 247.72 374.28 241.40 373.33 235.17 374.43 C 230.80 375.21 226.28 375.53 221.89 374.69 C 216.69 373.01 212.31 368.53 211.34 363.06 C 210.86 360.66 211.96 358.28 213.34 356.39 C 216.47 353.05 221.03 351.68 225.29 350.40 M 226.38 356.50 C 223.93 357.18 221.60 358.24 219.38 359.48 C 217.35 360.56 217.68 363.47 218.63 365.20 C 220.78 368.60 225.39 368.71 228.97 368.27 C 236.70 366.72 244.62 367.47 252.44 367.41 C 252.52 365.36 250.98 363.71 249.74 362.25 C 246.61 358.91 241.83 358.37 237.57 357.58 C 233.88 356.98 230.14 355.94 226.38 356.50 Z" />
<path fill="#41302f" stroke="#41302f" stroke-width="0.09375" opacity="1.00" d=" M 184.26 352.54 C 189.73 352.39 196.00 354.07 198.77 359.24 C 200.56 362.11 199.83 365.70 198.57 368.63 C 194.35 377.18 187.92 384.49 180.58 390.52 C 176.32 393.63 171.45 396.52 165.97 396.38 C 163.13 396.51 159.29 395.92 158.34 392.76 C 157.44 390.40 158.81 388.02 160.23 386.21 C 163.71 381.74 167.41 377.44 170.88 372.96 C 173.44 369.67 175.18 365.87 177.29 362.31 C 178.60 360.34 178.64 357.84 179.79 355.82 C 180.99 354.45 182.36 352.81 184.26 352.54 M 185.54 358.31 C 182.30 365.98 177.16 372.64 172.65 379.59 C 170.20 383.54 166.92 386.93 164.64 390.99 C 169.77 390.96 174.46 388.38 178.44 385.37 C 184.92 380.27 189.35 373.15 193.14 365.96 C 194.12 364.08 193.97 361.25 191.81 360.27 C 189.88 359.40 187.71 357.17 185.54 358.31 Z" />
<path fill="#41302f" stroke="#41302f" stroke-width="0.09375" opacity="1.00" d=" M 236.35 390.35 C 237.20 390.46 237.99 390.75 238.72 391.21 C 240.44 394.28 239.25 398.43 241.99 401.03 C 244.28 403.95 248.49 403.23 251.67 402.65 C 255.99 400.13 257.06 394.70 260.86 391.72 C 262.31 390.52 263.94 392.07 264.72 393.29 C 265.39 396.44 263.41 399.26 261.74 401.73 C 259.67 404.85 256.80 407.69 253.10 408.71 C 249.76 409.29 246.35 409.31 242.99 409.03 C 240.15 408.86 238.07 406.58 236.72 404.29 C 234.19 400.46 234.26 395.50 235.24 391.18 C 235.52 390.97 236.08 390.56 236.35 390.35 Z" />
<path fill="#41302f" stroke="#41302f" stroke-width="0.09375" opacity="1.00" d=" M 225.60 403.88 C 225.90 402.17 225.64 399.16 228.08 399.13 C 229.54 398.56 230.07 400.36 230.58 401.30 C 232.69 406.78 234.47 412.92 239.37 416.62 C 242.98 419.39 247.73 419.24 252.04 419.37 C 258.82 419.58 265.72 418.56 271.98 415.92 C 273.93 412.76 276.37 409.65 280.06 408.46 C 283.68 407.19 286.97 411.19 290.48 409.03 C 297.91 408.66 305.25 406.03 312.73 407.28 C 318.68 408.09 324.75 410.80 328.10 416.00 C 333.40 423.33 335.60 432.34 336.24 441.25 C 335.49 445.61 334.39 449.93 332.72 454.05 C 330.94 455.66 329.39 457.50 327.94 459.40 C 326.36 457.28 327.14 454.42 326.88 451.97 C 326.30 446.79 330.12 442.19 329.01 437.01 C 327.91 430.87 325.85 424.78 322.43 419.54 C 320.40 416.31 316.75 414.50 313.05 414.04 C 307.33 413.28 301.50 413.94 295.89 415.15 C 290.17 416.33 284.40 417.53 279.05 419.93 C 271.21 423.50 262.65 425.70 254.00 425.48 C 247.73 425.37 241.01 424.85 235.65 421.28 C 229.92 417.21 227.64 410.26 225.60 403.88 Z" />
<path fill="#41302f" stroke="#41302f" stroke-width="0.09375" opacity="1.00" d=" M 184.24 409.97 C 184.48 407.09 188.79 406.28 189.61 409.27 C 190.38 413.52 190.03 418.69 193.94 421.58 C 195.81 421.89 197.84 422.46 199.66 421.66 C 202.97 419.33 204.21 414.75 208.05 413.07 C 209.35 412.96 210.85 413.54 210.95 415.03 C 211.55 417.26 209.53 418.81 208.41 420.44 C 205.67 423.61 203.28 427.82 198.95 428.91 C 194.52 428.63 190.82 425.94 187.27 423.55 C 184.07 419.90 183.80 414.57 184.24 409.97 Z" />
</g>
<g id="#d1897bff">
<path fill="#d1897b" stroke="#d1897b" stroke-width="0.09375" opacity="1.00" d=" M 556.81 47.43 C 570.58 45.61 584.45 44.13 598.35 44.31 C 604.57 46.92 611.46 45.76 618.02 46.06 C 639.35 46.62 660.70 46.37 682.04 46.55 C 684.09 46.53 686.15 46.41 688.21 46.32 C 695.28 46.56 702.13 48.54 708.89 50.48 C 727.95 56.42 745.49 66.75 760.92 79.29 C 761.33 80.12 761.97 80.71 762.85 81.06 C 764.31 81.98 765.65 83.09 766.87 84.33 C 767.31 85.14 767.98 85.72 768.86 86.06 C 778.64 93.23 786.57 103.37 798.30 107.57 C 800.20 108.55 803.53 107.68 802.11 105.07 C 798.90 101.02 794.47 98.12 791.22 94.10 C 806.35 102.70 819.61 114.24 831.97 126.41 C 833.50 132.47 836.91 138.14 841.96 141.91 C 844.87 144.05 848.76 144.94 850.92 148.03 C 853.84 151.84 856.12 156.29 860.17 159.09 C 861.74 160.46 862.73 162.33 863.97 163.99 C 872.99 176.35 880.78 189.56 888.03 203.02 C 889.47 205.73 891.09 208.37 892.11 211.29 C 890.24 210.36 888.35 209.46 886.60 208.33 C 868.27 196.87 850.01 185.24 832.43 172.64 C 824.09 166.77 816.87 159.52 809.72 152.29 C 803.67 146.33 797.95 140.06 792.20 133.81 C 786.26 127.76 781.27 120.72 774.34 115.70 C 762.32 106.65 748.36 100.57 734.24 95.60 C 701.73 84.75 668.47 76.29 635.05 68.78 C 626.84 66.98 618.41 66.15 610.00 66.34 C 590.00 65.94 570.30 71.15 551.96 78.83 C 533.73 86.42 515.30 93.63 497.76 102.73 C 492.61 105.33 488.26 109.31 484.79 113.87 C 481.52 118.13 479.95 123.36 477.20 127.92 C 471.42 137.56 463.83 146.00 455.59 153.59 C 442.83 165.88 430.42 178.73 420.46 193.43 C 416.05 199.82 412.55 206.76 408.25 213.22 C 403.89 220.05 398.91 226.46 393.67 232.63 C 386.15 241.07 377.14 247.97 368.81 255.56 C 367.53 256.51 365.98 256.91 364.50 257.41 C 357.37 259.45 350.74 263.26 345.28 268.26 C 343.23 270.00 342.09 272.65 339.82 274.13 C 336.98 275.61 334.19 277.17 331.49 278.90 C 330.39 279.34 329.20 278.66 328.10 278.49 C 315.99 275.11 303.66 272.00 291.03 271.57 C 293.15 270.14 295.60 269.33 297.89 268.22 C 311.54 261.32 323.83 252.14 336.24 243.28 C 342.81 238.59 349.36 233.86 355.92 229.16 C 364.79 222.72 373.92 216.50 381.61 208.62 C 390.66 199.88 398.03 189.60 404.87 179.09 C 413.94 165.65 422.29 151.70 431.36 138.29 C 435.00 135.27 437.79 131.41 441.08 128.03 C 448.68 119.84 454.36 110.13 461.36 101.45 C 470.70 89.44 481.89 78.84 494.50 70.31 C 497.08 68.62 499.74 67.02 502.02 64.92 C 504.53 62.86 507.77 62.05 510.64 60.61 C 525.18 53.70 540.97 49.90 556.81 47.43 Z" />
<path fill="#d1897b" stroke="#d1897b" stroke-width="0.09375" opacity="1.00" d=" M 275.07 280.31 C 282.22 278.29 289.75 278.92 297.09 279.13 C 298.46 279.40 300.33 278.93 301.25 280.28 C 298.05 281.63 294.77 282.78 291.38 283.54 C 285.54 284.86 279.98 287.34 273.99 287.95 C 269.48 288.47 264.92 287.72 260.44 288.50 C 255.38 289.42 250.88 292.11 245.85 293.16 C 247.29 291.37 249.51 290.61 251.48 289.58 C 259.09 285.93 266.82 282.32 275.07 280.31 Z" />
<path fill="#d1897b" stroke="#d1897b" stroke-width="0.09375" opacity="1.00" d=" M 183.73 310.63 C 187.03 304.44 193.07 299.82 199.98 298.46 C 207.59 297.42 215.25 298.68 222.85 299.25 C 220.20 302.91 215.62 304.15 211.54 305.47 C 206.05 307.09 200.49 304.89 194.96 305.11 C 190.66 305.57 187.36 308.60 183.73 310.63 Z" />
<path fill="#d1897b" stroke="#d1897b" stroke-width="0.09375" opacity="1.00" d=" M 226.38 356.50 C 230.14 355.94 233.88 356.98 237.57 357.58 C 241.83 358.37 246.61 358.91 249.74 362.25 C 250.98 363.71 252.52 365.36 252.44 367.41 C 244.62 367.47 236.70 366.72 228.97 368.27 C 225.39 368.71 220.78 368.60 218.63 365.20 C 217.68 363.47 217.35 360.56 219.38 359.48 C 221.60 358.24 223.93 357.18 226.38 356.50 Z" />
<path fill="#d1897b" stroke="#d1897b" stroke-width="0.09375" opacity="1.00" d=" M 185.54 358.31 C 187.71 357.17 189.88 359.40 191.81 360.27 C 193.97 361.25 194.12 364.08 193.14 365.96 C 189.35 373.15 184.92 380.27 178.44 385.37 C 174.46 388.38 169.77 390.96 164.64 390.99 C 166.92 386.93 170.20 383.54 172.65 379.59 C 177.16 372.64 182.30 365.98 185.54 358.31 Z" />
</g>
<g id="#f1e5c9fe">
<path fill="#f1e5c9" stroke="#f1e5c9" stroke-width="0.09375" opacity="1.00" d=" M 598.35 44.31 C 600.20 44.03 602.10 44.01 603.99 43.99 C 623.33 43.77 642.67 43.80 662.01 44.01 C 669.37 44.08 676.72 44.75 684.05 45.45 C 685.45 45.59 686.86 45.86 688.21 46.32 C 686.15 46.41 684.09 46.53 682.04 46.55 C 660.70 46.37 639.35 46.62 618.02 46.06 C 611.46 45.76 604.57 46.92 598.35 44.31 Z" />
</g>
<g id="#fef6d8ff">
<path fill="#fef6d8" stroke="#fef6d8" stroke-width="0.09375" opacity="1.00" d=" M 491.44 71.36 C 494.89 69.10 498.28 66.70 502.02 64.92 C 499.74 67.02 497.08 68.62 494.50 70.31 C 481.89 78.84 470.70 89.44 461.36 101.45 C 454.36 110.13 448.68 119.84 441.08 128.03 C 437.79 131.41 435.00 135.27 431.36 138.29 C 447.49 112.94 466.44 88.55 491.44 71.36 Z" />
</g>
<g id="#784e46ff">
<path fill="#784e46" stroke="#784e46" stroke-width="0.09375" opacity="1.00" d=" M 551.96 78.83 C 570.30 71.15 590.00 65.94 610.00 66.34 C 618.41 66.15 626.84 66.98 635.05 68.78 C 668.47 76.29 701.73 84.75 734.24 95.60 C 748.36 100.57 762.32 106.65 774.34 115.70 C 781.27 120.72 786.26 127.76 792.20 133.81 C 797.95 140.06 803.67 146.33 809.72 152.29 C 816.87 159.52 824.09 166.77 832.43 172.64 C 850.01 185.24 868.27 196.87 886.60 208.33 C 888.35 209.46 890.24 210.36 892.11 211.29 C 894.11 213.90 895.13 217.22 896.69 220.13 C 904.56 235.86 911.66 251.94 919.34 267.75 C 924.40 279.24 930.32 290.33 934.88 302.04 C 938.93 311.23 940.29 321.26 942.31 331.01 C 943.34 335.75 943.19 340.65 942.99 345.47 L 941.78 345.48 C 937.76 345.29 933.97 347.66 931.87 350.99 C 928.62 355.68 928.43 361.59 927.72 367.06 C 926.95 372.59 926.67 378.23 924.92 383.57 C 924.02 380.56 924.16 377.39 923.66 374.32 C 922.61 370.60 921.03 366.43 917.25 364.73 C 912.63 362.72 906.96 363.92 903.25 367.24 C 898.98 371.40 896.73 377.13 895.70 382.91 C 893.90 389.48 894.13 396.64 890.69 402.70 C 887.49 409.99 881.36 415.94 879.98 424.00 C 879.79 428.99 882.26 435.52 887.99 436.06 C 893.72 437.02 898.91 433.66 902.69 429.71 C 908.76 422.40 913.55 414.17 918.23 405.93 C 915.30 423.38 906.56 439.20 896.65 453.62 C 885.06 470.59 867.44 482.26 849.37 491.42 C 841.89 495.75 834.01 499.34 826.37 503.39 C 823.13 505.15 819.57 506.17 816.04 507.19 C 801.64 511.52 787.19 515.64 772.68 519.58 C 748.93 525.67 724.59 531.36 699.90 529.86 C 684.43 528.64 669.01 525.46 654.70 519.33 C 646.62 516.38 639.37 511.63 631.36 508.55 C 630.24 508.05 629.09 507.61 628.14 506.84 C 627.27 505.48 626.98 503.84 626.51 502.33 C 625.23 497.46 623.27 492.81 621.78 488.01 C 620.29 483.15 620.69 478.01 620.78 473.00 C 620.93 464.61 621.92 456.26 623.03 447.95 C 623.41 444.75 624.31 441.65 625.29 438.60 C 626.89 445.55 627.29 452.93 630.63 459.36 C 632.46 463.41 637.00 465.09 641.04 466.02 C 642.70 466.65 643.14 464.49 643.51 463.39 C 644.81 457.42 644.12 451.20 642.54 445.36 C 641.82 442.80 643.50 440.46 643.88 438.00 C 644.41 434.55 644.70 431.05 645.61 427.66 C 647.21 420.14 651.24 413.45 653.36 406.09 C 654.18 403.21 653.19 398.90 649.72 398.47 C 647.22 398.19 645.64 400.33 643.88 401.68 C 641.37 401.89 638.86 401.49 636.40 401.10 C 640.62 399.37 641.95 394.70 643.90 391.02 C 646.74 384.95 650.23 379.23 653.31 373.29 C 655.43 368.75 658.43 364.66 660.20 359.94 C 667.35 346.62 676.94 334.85 685.44 322.41 C 692.56 312.00 699.68 301.27 703.05 288.97 C 704.49 283.56 705.88 277.85 704.72 272.25 C 703.54 271.85 702.37 271.81 701.21 272.14 C 700.51 273.16 699.95 274.26 699.54 275.44 C 696.53 274.98 694.18 272.42 691.00 272.73 C 685.05 272.12 680.02 276.18 676.53 280.55 C 671.08 287.80 665.88 295.24 660.75 302.72 C 659.46 304.59 658.08 306.42 656.42 307.97 C 656.23 307.22 655.85 305.70 655.66 304.95 C 656.72 300.86 657.11 296.63 658.36 292.58 C 658.48 291.70 658.33 289.63 656.94 290.16 C 653.51 289.81 651.31 293.00 650.94 296.06 C 648.05 295.25 644.98 294.14 642.00 295.18 C 640.06 296.05 638.63 297.71 637.23 299.25 C 637.23 295.35 637.03 291.46 636.45 287.61 C 635.77 284.55 638.00 281.98 639.75 279.75 C 643.78 275.08 647.04 269.74 651.34 265.33 C 654.40 264.82 657.54 265.04 660.62 264.55 C 666.04 263.65 671.54 264.10 677.00 264.01 C 681.88 264.08 686.79 263.66 691.63 264.45 C 696.06 265.12 700.58 264.91 705.00 265.74 C 708.88 266.35 712.49 268.04 716.41 268.51 C 718.50 268.91 720.83 269.01 722.59 270.38 C 723.50 274.38 723.60 278.64 725.61 282.35 C 727.93 288.04 733.68 291.08 737.06 295.99 C 738.93 298.71 737.28 302.02 737.16 304.99 C 736.86 309.76 736.54 314.86 738.77 319.27 C 739.37 321.08 741.06 323.48 739.22 325.12 C 731.49 331.02 723.60 336.81 716.68 343.67 C 712.32 346.61 709.12 350.81 706.09 355.03 C 703.77 358.45 702.88 362.55 701.33 366.32 C 700.30 369.17 697.35 370.49 694.95 371.96 C 688.93 375.36 683.41 379.63 678.76 384.75 C 674.53 388.66 670.09 393.05 669.09 398.98 C 668.67 403.64 668.52 408.73 671.16 412.83 C 675.16 420.53 681.32 427.70 689.92 430.23 C 696.25 432.76 702.59 428.85 709.01 429.03 C 715.72 428.42 722.28 430.73 728.99 430.11 C 735.39 429.77 741.07 426.46 746.70 423.71 C 754.37 419.95 761.41 414.62 769.89 412.74 C 775.73 411.27 781.80 412.73 787.69 411.68 C 791.69 410.90 795.48 409.15 798.77 406.75 C 804.95 402.32 810.32 396.66 814.09 390.03 C 815.20 388.22 816.11 386.14 817.99 384.98 C 819.84 385.60 819.95 387.79 820.61 389.35 C 822.39 395.55 825.17 401.62 829.70 406.30 C 833.04 409.78 836.86 413.13 841.63 414.41 C 845.54 415.44 849.62 416.48 853.69 415.71 C 859.72 414.87 865.30 411.82 869.78 407.77 C 874.30 402.61 877.78 396.50 879.76 389.91 C 883.44 381.53 883.76 372.26 885.43 363.38 C 886.05 360.36 885.70 356.69 888.17 354.42 C 892.44 355.33 896.54 357.23 901.00 357.08 C 907.02 357.53 912.52 354.58 917.44 351.47 C 920.95 349.30 923.12 345.64 925.15 342.15 C 928.68 335.96 928.57 328.46 927.46 321.63 C 925.13 312.62 921.74 303.87 917.32 295.68 C 915.03 291.47 913.53 286.91 911.37 282.66 C 907.53 275.97 904.07 268.93 898.72 263.28 C 897.32 261.72 895.60 260.42 894.52 258.61 C 893.19 255.22 892.86 251.55 891.78 248.09 C 888.12 235.61 880.64 224.60 871.91 215.12 C 869.48 211.87 866.74 208.87 863.40 206.54 C 854.30 198.20 844.51 190.62 834.40 183.54 C 830.79 180.86 828.07 177.23 824.72 174.26 C 819.43 169.88 814.34 165.26 808.86 161.10 C 801.59 154.10 792.87 148.95 784.45 143.51 C 779.93 140.29 775.32 137.14 770.30 134.76 C 765.57 132.84 760.66 131.28 755.63 130.43 C 749.45 129.65 743.20 130.27 737.00 130.02 C 733.29 129.80 729.68 130.83 726.01 131.07 C 724.36 129.82 724.12 127.48 723.24 125.71 C 721.39 120.33 716.42 116.99 711.67 114.35 C 705.85 110.99 702.49 104.01 695.65 102.36 C 690.12 101.52 684.43 101.83 678.99 103.06 C 670.33 104.76 661.77 107.16 653.70 110.74 C 650.78 112.02 647.81 113.30 645.28 115.26 C 642.64 117.27 641.13 120.32 638.81 122.63 C 635.11 120.62 631.34 118.26 626.98 118.19 C 622.10 118.29 617.32 119.80 612.99 121.99 C 611.57 122.56 609.87 123.58 608.39 122.65 C 606.55 120.79 605.35 118.34 603.20 116.80 C 599.10 113.92 593.99 112.41 588.98 113.02 C 582.14 113.75 575.81 116.74 569.66 119.65 C 560.22 124.55 550.48 128.88 541.34 134.35 C 537.52 136.37 534.41 139.41 530.95 141.96 C 527.86 144.08 526.53 147.74 525.15 151.06 C 524.01 153.81 524.25 156.84 523.66 159.71 C 521.98 161.58 519.44 162.51 517.04 163.06 C 514.38 161.45 512.65 158.69 509.99 157.06 C 506.06 154.74 501.67 152.84 497.01 153.01 C 488.81 152.54 480.27 154.63 473.81 159.85 C 467.35 165.27 465.73 174.90 468.41 182.64 C 469.09 185.65 471.10 188.09 472.11 190.96 C 471.06 193.33 468.46 194.26 466.35 195.41 C 459.82 198.75 452.87 201.45 447.13 206.12 C 442.36 209.99 437.23 213.54 433.35 218.36 C 431.81 220.16 430.55 222.21 428.76 223.77 C 424.13 227.38 417.85 228.39 413.70 232.71 C 410.05 236.56 406.91 241.49 407.07 247.00 C 406.90 250.50 407.84 254.42 405.53 257.44 C 400.82 264.64 398.24 273.27 399.09 281.90 L 398.23 281.71 C 395.34 277.66 394.84 272.29 391.33 268.66 C 389.47 266.47 388.48 263.62 386.25 261.74 C 383.52 259.31 380.33 257.17 376.70 256.46 C 374.08 256.06 371.42 255.99 368.81 255.56 C 377.14 247.97 386.15 241.07 393.67 232.63 C 398.91 226.46 403.89 220.05 408.25 213.22 C 412.55 206.76 416.05 199.82 420.46 193.43 C 430.42 178.73 442.83 165.88 455.59 153.59 C 463.83 146.00 471.42 137.56 477.20 127.92 C 479.95 123.36 481.52 118.13 484.79 113.87 C 488.26 109.31 492.61 105.33 497.76 102.73 C 515.30 93.63 533.73 86.42 551.96 78.83 Z" />
<path fill="#784e46" stroke="#784e46" stroke-width="0.09375" opacity="1.00" d=" M 331.49 278.90 C 334.19 277.17 336.98 275.61 339.82 274.13 C 339.42 276.67 339.03 279.22 338.54 281.76 C 336.03 281.31 333.51 280.50 331.49 278.90 Z" />
<path fill="#784e46" stroke="#784e46" stroke-width="0.09375" opacity="1.00" d=" M 436.74 276.71 C 438.79 275.29 441.51 275.86 443.80 276.25 C 443.51 279.33 442.06 282.13 441.17 285.06 C 439.09 291.48 437.02 297.94 434.05 304.01 C 429.39 313.10 424.72 322.64 424.07 333.00 C 424.40 339.30 426.55 345.62 430.48 350.61 C 435.33 356.72 440.27 362.75 445.25 368.75 C 446.94 370.75 449.13 372.24 451.14 373.91 C 454.25 376.42 456.83 379.51 459.77 382.23 C 462.32 384.70 465.01 387.45 465.72 391.07 C 466.56 398.05 465.65 405.06 464.95 412.01 C 465.24 416.59 463.40 421.10 464.36 425.67 C 465.09 429.75 464.70 433.99 465.89 438.00 C 467.42 443.29 468.89 449.01 473.17 452.83 C 478.16 458.56 486.93 459.50 493.70 456.68 C 498.60 454.34 502.04 449.55 503.43 444.36 C 506.56 433.46 507.07 422.04 508.72 410.87 C 509.39 407.02 508.58 402.57 511.16 399.31 C 514.34 400.56 517.41 402.61 521.00 402.20 C 525.48 402.49 529.77 399.22 530.90 394.93 C 531.85 391.28 529.95 387.71 530.17 384.06 C 531.61 379.66 535.60 376.81 537.97 372.96 C 541.86 365.48 541.59 356.65 545.19 349.07 C 547.51 343.87 549.80 338.59 550.97 333.00 C 551.61 329.98 550.49 327.01 550.30 324.01 C 550.50 322.61 551.87 321.76 552.72 320.72 C 557.67 316.00 562.34 310.99 567.29 306.27 C 569.41 304.10 572.60 304.10 575.38 303.46 C 583.40 301.77 590.14 296.49 595.37 290.38 C 597.48 287.82 600.13 285.71 601.84 282.84 C 603.14 280.80 604.06 278.48 605.77 276.73 C 607.39 275.63 609.63 275.91 611.36 276.63 C 612.70 279.31 611.60 282.28 610.85 284.95 C 609.04 291.13 608.85 297.90 610.89 304.04 C 612.88 309.27 618.58 312.29 624.00 312.03 C 628.38 311.54 631.82 308.51 635.11 305.84 C 634.87 318.63 632.09 331.17 629.52 343.65 C 627.63 352.10 626.11 360.73 622.68 368.73 C 619.90 375.33 616.07 381.42 612.67 387.70 C 609.20 394.68 606.46 402.00 603.08 409.01 C 602.71 410.96 601.36 408.76 601.27 408.03 C 599.39 402.21 598.32 396.08 598.67 389.96 C 598.79 386.96 599.25 383.93 598.73 380.95 C 598.65 379.08 597.26 376.43 599.74 375.52 C 600.65 377.07 601.00 380.20 603.45 379.84 C 604.87 376.34 606.02 372.73 607.39 369.22 C 608.99 365.01 608.93 360.45 608.96 356.03 C 608.94 351.32 610.10 346.70 610.09 342.00 C 610.08 335.60 609.06 329.25 607.72 323.02 C 606.03 315.75 601.25 309.81 596.95 303.91 C 595.93 302.33 594.13 301.17 592.23 301.97 C 592.02 303.57 591.94 305.18 591.85 306.79 C 586.09 308.52 582.47 314.32 581.89 320.09 C 581.34 325.87 581.76 331.69 582.41 337.44 C 583.21 344.95 582.20 352.59 583.61 360.05 C 584.10 362.62 585.02 365.09 585.62 367.65 C 583.43 368.06 581.22 368.33 579.03 368.67 C 577.35 369.05 575.17 368.75 574.41 370.69 C 572.05 373.73 569.83 377.08 569.26 380.98 C 568.38 387.68 569.36 394.44 570.29 401.09 C 571.00 405.74 569.61 410.39 570.15 415.05 C 571.26 426.02 573.00 436.95 573.05 448.01 C 573.13 454.67 573.44 461.33 573.35 468.00 C 573.35 470.56 571.85 472.73 570.87 475.00 C 568.75 479.45 567.63 484.54 564.33 488.34 C 561.73 489.50 558.66 488.98 556.02 490.12 C 552.46 491.65 549.38 494.07 546.19 496.22 C 532.48 506.38 517.35 514.69 501.25 520.38 C 496.20 522.06 491.05 523.40 485.94 524.91 C 470.65 529.35 454.79 531.30 439.10 533.74 C 434.28 534.53 429.30 534.80 424.72 536.63 C 422.18 537.61 420.21 539.57 417.86 540.88 C 415.62 541.44 413.28 541.19 411.00 541.28 C 405.63 541.27 400.35 542.29 395.02 542.67 C 378.37 544.22 361.85 546.81 345.35 549.45 C 340.25 550.27 335.11 551.48 329.91 550.90 C 319.97 549.89 310.01 548.87 300.01 549.18 C 291.82 548.80 283.69 550.76 276.25 554.09 C 275.79 552.18 275.43 549.35 273.00 549.05 C 270.76 548.44 269.28 550.49 267.46 551.33 C 265.68 551.42 263.89 551.03 262.20 550.51 C 261.61 548.46 261.42 546.32 260.65 544.33 C 260.09 543.04 258.40 543.08 257.30 542.55 C 258.40 540.21 261.41 538.35 260.75 535.50 C 260.39 535.22 259.66 534.65 259.30 534.37 C 260.57 531.49 262.82 529.20 264.76 526.77 C 270.05 521.07 275.68 515.68 281.24 510.23 C 285.89 505.41 291.41 501.54 296.92 497.78 C 304.35 493.55 312.64 491.00 321.00 489.36 C 323.53 489.05 326.08 488.21 328.64 488.59 C 333.20 491.56 338.81 491.13 344.00 491.25 C 348.33 491.22 352.69 491.48 357.00 490.98 C 361.70 490.41 366.06 488.44 370.30 486.44 C 375.47 484.01 381.32 487.13 386.41 484.61 C 393.77 482.39 401.15 479.83 407.68 475.68 C 409.12 474.87 410.66 473.82 412.42 474.25 C 408.90 479.15 404.15 483.40 402.32 489.34 C 401.62 491.49 402.33 494.74 404.96 495.10 C 414.65 497.75 424.98 494.63 433.03 489.04 C 438.19 486.02 441.99 481.33 446.28 477.27 C 453.05 470.49 457.54 461.85 461.19 453.09 C 462.38 448.94 462.98 443.62 459.76 440.22 C 456.49 437.53 451.97 436.49 447.86 437.58 C 448.40 435.51 450.15 433.98 450.87 431.96 C 452.94 426.60 454.86 421.18 456.56 415.69 C 458.52 409.30 457.86 402.55 457.10 396.02 C 456.56 389.21 453.43 382.92 449.61 377.37 C 447.66 374.31 444.11 372.86 442.11 369.84 C 439.36 367.53 434.81 369.26 432.13 366.74 C 428.44 362.80 424.21 359.35 420.94 355.02 C 418.72 352.24 416.81 349.19 414.13 346.83 C 411.35 344.43 407.91 343.03 404.72 341.30 C 401.11 339.38 398.50 336.14 395.88 333.11 C 392.44 329.21 390.29 324.28 386.26 320.89 C 386.37 319.09 388.57 318.07 389.51 316.56 C 392.82 312.00 398.22 308.83 399.70 303.09 C 401.46 298.80 401.01 294.14 401.41 289.64 C 403.38 292.00 404.34 295.20 406.97 296.98 C 410.33 299.05 409.90 303.73 412.70 306.29 C 415.68 309.53 420.64 309.45 424.60 308.55 C 428.41 306.58 431.28 302.38 431.02 297.99 C 431.15 295.16 429.61 292.66 428.96 289.99 C 429.36 287.74 430.93 285.97 432.05 284.04 C 433.63 281.62 434.71 278.82 436.74 276.71 Z" />
<path fill="#784e46" stroke="#784e46" stroke-width="0.09375" opacity="1.00" d=" M 301.25 280.28 C 302.56 279.83 303.97 280.36 305.30 280.51 C 310.60 281.58 315.84 282.92 321.08 284.26 C 319.75 285.65 318.16 286.99 317.71 288.95 C 316.94 292.02 318.32 295.31 320.63 297.36 C 323.43 300.31 327.39 301.55 331.02 303.12 C 335.14 304.82 339.38 306.76 343.93 306.71 C 347.03 306.55 348.71 303.67 350.49 301.55 C 352.74 304.37 355.14 307.73 359.06 308.14 C 362.93 309.00 366.38 306.74 369.81 305.35 C 370.64 306.86 371.41 308.75 370.44 310.40 C 367.84 314.71 362.97 317.16 360.68 321.70 C 359.33 324.58 358.50 327.84 358.98 331.03 C 359.82 336.20 366.30 339.64 370.97 337.07 C 373.42 335.90 374.81 333.48 375.84 331.09 C 376.35 328.19 380.07 329.19 380.30 331.61 C 380.54 334.09 381.41 336.43 382.41 338.70 C 383.83 341.88 384.09 345.42 385.39 348.65 C 386.84 351.97 389.87 354.14 392.24 356.75 C 395.04 359.63 396.93 363.28 399.95 365.95 C 402.71 368.35 406.01 370.01 409.27 371.62 C 414.82 374.28 420.34 377.23 426.43 378.47 C 432.82 379.85 439.69 380.17 445.17 384.16 L 445.76 384.53 C 445.90 384.91 446.18 385.67 446.32 386.04 C 445.63 385.77 444.25 385.21 443.55 384.94 C 440.25 388.57 439.36 393.65 438.38 398.30 C 436.67 406.76 436.16 415.88 431.22 423.26 C 429.47 424.89 428.14 426.88 426.63 428.71 C 420.14 432.95 413.63 437.18 406.75 440.76 C 402.62 442.80 398.81 446.12 394.00 446.21 C 386.91 446.45 379.49 444.92 372.71 447.66 C 368.34 449.11 365.00 453.04 360.40 453.71 C 358.26 450.74 355.90 447.89 352.36 446.58 C 351.71 445.35 351.88 442.95 349.98 442.97 C 347.28 442.72 346.31 446.01 343.98 446.78 C 339.27 447.73 337.23 452.86 332.72 454.05 C 334.39 449.93 335.49 445.61 336.24 441.25 C 338.27 441.14 340.85 440.96 341.60 438.65 C 342.11 434.78 341.84 430.84 342.04 426.94 C 342.29 423.04 340.36 419.53 339.15 415.95 C 337.77 411.51 334.33 407.77 329.98 406.14 C 323.63 403.68 316.78 402.76 310.01 402.66 C 306.33 402.61 302.60 402.40 299.00 403.24 C 295.67 404.26 292.42 406.05 290.48 409.03 C 286.97 411.19 283.68 407.19 280.06 408.46 C 276.37 409.65 273.93 412.76 271.98 415.92 C 265.72 418.56 258.82 419.58 252.04 419.37 C 247.73 419.24 242.98 419.39 239.37 416.62 C 234.47 412.92 232.69 406.78 230.58 401.30 C 230.07 400.36 229.54 398.56 228.08 399.13 C 225.64 399.16 225.90 402.17 225.60 403.88 C 222.47 401.91 219.89 399.32 217.83 396.27 C 217.08 396.11 215.59 395.79 214.84 395.63 C 213.66 395.50 213.34 394.06 212.74 393.27 C 210.81 389.68 208.83 386.00 205.80 383.20 C 204.95 382.10 203.55 382.00 202.30 382.26 C 201.03 383.87 201.45 385.96 202.47 387.57 C 206.47 394.32 210.10 401.33 212.84 408.69 C 210.37 409.41 207.77 410.09 205.79 411.81 C 201.71 414.93 199.09 420.00 193.94 421.58 C 190.03 418.69 190.38 413.52 189.61 409.27 C 188.79 406.28 184.48 407.09 184.24 409.97 C 183.80 414.57 184.07 419.90 187.27 423.55 C 183.17 425.22 178.81 426.09 174.63 427.54 C 168.51 429.58 163.98 434.47 158.25 437.26 C 154.86 438.76 151.22 439.55 147.65 440.50 C 143.22 441.65 138.50 442.42 133.99 441.27 C 128.31 439.85 122.93 437.27 117.05 436.60 C 108.65 435.25 99.24 436.30 91.96 431.07 C 92.60 429.56 93.60 427.86 92.84 426.20 C 89.05 424.37 84.74 423.71 81.16 421.44 C 92.29 416.76 103.69 412.68 114.65 407.59 C 121.31 404.29 126.50 398.86 132.17 394.18 C 136.56 389.91 140.99 385.64 144.82 380.85 C 148.73 376.74 151.70 371.63 152.68 366.00 C 153.20 362.97 152.15 359.98 151.94 356.97 C 152.14 354.88 152.76 352.81 152.17 350.72 C 154.24 349.08 156.85 347.66 157.80 345.04 C 158.83 341.67 157.25 338.31 156.98 334.96 C 158.48 333.03 161.38 332.37 163.58 333.47 C 166.88 335.04 170.54 333.89 174.02 334.18 C 177.88 334.65 182.22 331.98 182.79 328.00 C 182.45 323.60 182.19 319.18 181.56 314.81 C 181.37 313.19 182.50 311.59 183.73 310.63 C 187.36 308.60 190.66 305.57 194.96 305.11 C 200.49 304.89 206.05 307.09 211.54 305.47 C 215.62 304.15 220.20 302.91 222.85 299.25 C 224.14 298.96 225.49 299.24 226.79 299.45 C 226.59 301.31 224.90 302.43 223.83 303.80 C 220.82 307.06 218.70 311.01 216.75 314.97 C 215.34 317.94 214.20 321.44 215.37 324.69 C 216.68 326.95 219.15 329.01 221.92 328.72 C 225.35 328.36 228.68 326.54 230.55 323.58 C 233.05 319.74 234.98 315.51 237.98 311.99 C 240.50 308.87 243.93 306.12 244.79 302.01 C 245.34 299.51 243.65 297.32 242.73 295.14 C 242.91 293.58 244.75 293.64 245.85 293.16 C 250.88 292.11 255.38 289.42 260.44 288.50 C 264.92 287.72 269.48 288.47 273.99 287.95 C 279.98 287.34 285.54 284.86 291.38 283.54 C 294.77 282.78 298.05 281.63 301.25 280.28 M 225.29 350.40 C 221.03 351.68 216.47 353.05 213.34 356.39 C 211.96 358.28 210.86 360.66 211.34 363.06 C 212.31 368.53 216.69 373.01 221.89 374.69 C 226.28 375.53 230.80 375.21 235.17 374.43 C 241.40 373.33 247.72 374.28 253.99 374.14 C 256.13 374.21 257.56 372.28 258.60 370.67 C 259.46 367.18 257.91 363.70 256.35 360.65 C 253.88 355.99 248.93 353.34 244.01 351.99 C 237.96 350.35 231.52 348.85 225.29 350.40 M 184.26 352.54 C 182.36 352.81 180.99 354.45 179.79 355.82 C 178.64 357.84 178.60 360.34 177.29 362.31 C 175.18 365.87 173.44 369.67 170.88 372.96 C 167.41 377.44 163.71 381.74 160.23 386.21 C 158.81 388.02 157.44 390.40 158.34 392.76 C 159.29 395.92 163.13 396.51 165.97 396.38 C 171.45 396.52 176.32 393.63 180.58 390.52 C 187.92 384.49 194.35 377.18 198.57 368.63 C 199.83 365.70 200.56 362.11 198.77 359.24 C 196.00 354.07 189.73 352.39 184.26 352.54 M 236.35 390.35 C 236.08 390.56 235.52 390.97 235.24 391.18 C 234.26 395.50 234.19 400.46 236.72 404.29 C 238.07 406.58 240.15 408.86 242.99 409.03 C 246.35 409.31 249.76 409.29 253.10 408.71 C 256.80 407.69 259.67 404.85 261.74 401.73 C 263.41 399.26 265.39 396.44 264.72 393.29 C 263.94 392.07 262.31 390.52 260.86 391.72 C 257.06 394.70 255.99 400.13 251.67 402.65 C 248.49 403.23 244.28 403.95 241.99 401.03 C 239.25 398.43 240.44 394.28 238.72 391.21 C 237.99 390.75 237.20 390.46 236.35 390.35 Z" />
<path fill="#784e46" stroke="#784e46" stroke-width="0.09375" opacity="1.00" d=" M 948.92 379.87 C 952.33 380.61 955.45 382.44 958.98 382.90 C 960.87 382.99 961.98 384.59 963.35 385.67 C 965.24 386.63 966.23 384.54 967.34 383.45 C 970.86 382.89 974.63 383.53 977.99 382.02 C 980.39 381.18 982.84 379.69 985.48 380.27 C 987.98 383.79 991.02 387.42 990.99 391.99 C 991.41 395.28 989.48 398.14 987.60 400.64 C 985.88 402.87 983.27 404.09 981.13 405.84 C 978.82 407.63 976.80 409.94 973.97 410.92 C 970.19 412.52 966.00 412.21 962.01 412.25 C 959.68 412.20 957.32 412.38 955.04 411.92 C 952.83 410.86 950.56 409.96 948.14 409.59 C 947.69 404.37 948.28 399.13 948.60 393.93 C 948.90 389.24 948.22 384.53 948.92 379.87 Z" />
<path fill="#784e46" stroke="#784e46" stroke-width="0.09375" opacity="1.00" d=" M 91.75 465.64 C 97.77 463.54 103.58 460.46 110.03 459.89 C 116.10 459.58 122.36 459.51 128.16 461.63 C 130.67 462.59 133.69 463.10 135.59 465.11 C 135.31 466.96 134.41 468.89 135.21 470.74 C 136.58 472.56 138.72 473.64 140.84 474.34 C 147.70 476.32 155.00 476.65 161.62 479.46 C 164.78 480.69 167.17 483.23 170.23 484.65 C 172.83 486.00 175.91 486.80 177.75 489.23 C 179.91 491.89 181.57 495.31 184.92 496.68 C 186.63 497.29 188.02 498.45 189.33 499.68 C 192.30 502.47 196.89 503.27 199.05 506.98 C 202.08 511.92 204.98 517.04 206.34 522.73 C 209.26 525.09 212.80 526.88 215.02 529.99 C 210.96 529.37 207.94 525.94 203.81 525.40 C 201.53 524.62 198.43 526.40 198.83 529.00 C 199.22 529.87 200.14 530.62 200.49 531.42 C 197.84 533.51 197.53 537.10 196.59 540.11 C 196.39 541.00 195.87 541.45 195.02 541.46 C 194.05 541.47 193.11 541.68 192.33 542.30 C 189.87 543.95 187.19 545.25 184.48 546.44 C 180.30 545.39 176.02 546.20 171.91 547.12 C 158.17 550.23 143.85 550.89 129.90 548.78 C 120.37 547.48 110.33 545.56 102.67 539.33 C 98.54 536.49 95.31 532.64 92.33 528.66 C 86.33 520.75 80.01 512.67 77.21 502.98 C 76.29 500.33 75.63 497.44 73.75 495.28 C 71.99 493.61 69.83 492.36 68.46 490.32 C 72.17 483.65 76.32 477.16 81.73 471.72 C 84.54 468.95 88.03 466.91 91.75 465.64 Z" />
</g>
<g id="#5e413ddc">
<path fill="#5e413d" stroke="#5e413d" stroke-width="0.09375" opacity="0.86" d=" M 760.92 79.29 L 761.70 78.86 L 762.75 79.21 L 763.20 80.23 L 762.85 81.06 C 761.97 80.71 761.33 80.12 760.92 79.29 Z" />
</g>
<g id="#583d39d1">
<path fill="#583d39" stroke="#583d39" stroke-width="0.09375" opacity="0.82" d=" M 766.87 84.33 L 767.66 83.88 L 768.71 84.22 L 769.19 85.22 L 768.86 86.06 C 767.98 85.72 767.31 85.14 766.87 84.33 Z" />
</g>
<g id="#82554cff">
<path fill="#82554c" stroke="#82554c" stroke-width="0.09375" opacity="1.00" d=" M 678.99 103.06 C 684.43 101.83 690.12 101.52 695.65 102.36 C 702.49 104.01 705.85 110.99 711.67 114.35 C 716.42 116.99 721.39 120.33 723.24 125.71 C 724.12 127.48 724.36 129.82 726.01 131.07 C 729.68 130.83 733.29 129.80 737.00 130.02 C 743.20 130.27 749.45 129.65 755.63 130.43 C 760.66 131.28 765.57 132.84 770.30 134.76 C 775.32 137.14 779.93 140.29 784.45 143.51 C 792.87 148.95 801.59 154.10 808.86 161.10 C 814.34 165.26 819.43 169.88 824.72 174.26 C 828.07 177.23 830.79 180.86 834.40 183.54 C 844.51 190.62 854.30 198.20 863.40 206.54 C 866.74 208.87 869.48 211.87 871.91 215.12 C 880.64 224.60 888.12 235.61 891.78 248.09 C 892.86 251.55 893.19 255.22 894.52 258.61 C 895.60 260.42 897.32 261.72 898.72 263.28 C 904.07 268.93 907.53 275.97 911.37 282.66 C 913.53 286.91 915.03 291.47 917.32 295.68 C 921.74 303.87 925.13 312.62 927.46 321.63 C 928.57 328.46 928.68 335.96 925.15 342.15 C 923.12 345.64 920.95 349.30 917.44 351.47 C 912.52 354.58 907.02 357.53 901.00 357.08 C 896.54 357.23 892.44 355.33 888.17 354.42 C 885.70 356.69 886.05 360.36 885.43 363.38 C 883.76 372.26 883.44 381.53 879.76 389.91 C 877.78 396.50 874.30 402.61 869.78 407.77 C 865.30 411.82 859.72 414.87 853.69 415.71 C 849.62 416.48 845.54 415.44 841.63 414.41 C 836.86 413.13 833.04 409.78 829.70 406.30 C 825.17 401.62 822.39 395.55 820.61 389.35 C 819.95 387.79 819.84 385.60 817.99 384.98 C 816.11 386.14 815.20 388.22 814.09 390.03 C 810.32 396.66 804.95 402.32 798.77 406.75 C 795.48 409.15 791.69 410.90 787.69 411.68 C 781.80 412.73 775.73 411.27 769.89 412.74 C 761.41 414.62 754.37 419.95 746.70 423.71 C 741.07 426.46 735.39 429.77 728.99 430.11 C 722.28 430.73 715.72 428.42 709.01 429.03 C 702.59 428.85 696.25 432.76 689.92 430.23 C 681.32 427.70 675.16 420.53 671.16 412.83 C 668.52 408.73 668.67 403.64 669.09 398.98 C 670.09 393.05 674.53 388.66 678.76 384.75 C 683.41 379.63 688.93 375.36 694.95 371.96 C 697.35 370.49 700.30 369.17 701.33 366.32 C 702.88 362.55 703.77 358.45 706.09 355.03 C 709.12 350.81 712.32 346.61 716.68 343.67 C 723.60 336.81 731.49 331.02 739.22 325.12 C 741.06 323.48 739.37 321.08 738.77 319.27 C 736.54 314.86 736.86 309.76 737.16 304.99 C 737.28 302.02 738.93 298.71 737.06 295.99 C 733.68 291.08 727.93 288.04 725.61 282.35 C 723.60 278.64 723.50 274.38 722.59 270.38 C 720.83 269.01 718.50 268.91 716.41 268.51 C 712.49 268.04 708.88 266.35 705.00 265.74 C 700.58 264.91 696.06 265.12 691.63 264.45 C 686.79 263.66 681.88 264.08 677.00 264.01 C 671.54 264.10 666.04 263.65 660.62 264.55 C 657.54 265.04 654.40 264.82 651.34 265.33 C 647.04 269.74 643.78 275.08 639.75 279.75 C 638.00 281.98 635.77 284.55 636.45 287.61 C 637.03 291.46 637.23 295.35 637.23 299.25 C 636.59 301.47 635.84 303.65 635.11 305.84 C 631.82 308.51 628.38 311.54 624.00 312.03 C 618.58 312.29 612.88 309.27 610.89 304.04 C 608.85 297.90 609.04 291.13 610.85 284.95 C 611.60 282.28 612.70 279.31 611.36 276.63 C 609.63 275.91 607.39 275.63 605.77 276.73 C 604.06 278.48 603.14 280.80 601.84 282.84 C 600.13 285.71 597.48 287.82 595.37 290.38 C 590.14 296.49 583.40 301.77 575.38 303.46 C 572.60 304.10 569.41 304.10 567.29 306.27 C 562.34 310.99 557.67 316.00 552.72 320.72 C 551.87 321.76 550.50 322.61 550.30 324.01 C 550.49 327.01 551.61 329.98 550.97 333.00 C 549.80 338.59 547.51 343.87 545.19 349.07 C 541.59 356.65 541.86 365.48 537.97 372.96 C 535.60 376.81 531.61 379.66 530.17 384.06 C 529.95 387.71 531.85 391.28 530.90 394.93 C 529.77 399.22 525.48 402.49 521.00 402.20 C 517.41 402.61 514.34 400.56 511.16 399.31 C 508.58 402.57 509.39 407.02 508.72 410.87 C 507.07 422.04 506.56 433.46 503.43 444.36 C 502.04 449.55 498.60 454.34 493.70 456.68 C 486.93 459.50 478.16 458.56 473.17 452.83 C 468.89 449.01 467.42 443.29 465.89 438.00 C 464.70 433.99 465.09 429.75 464.36 425.67 C 463.40 421.10 465.24 416.59 464.95 412.01 C 465.65 405.06 466.56 398.05 465.72 391.07 C 465.01 387.45 462.32 384.70 459.77 382.23 C 456.83 379.51 454.25 376.42 451.14 373.91 C 449.13 372.24 446.94 370.75 445.25 368.75 C 440.27 362.75 435.33 356.72 430.48 350.61 C 426.55 345.62 424.40 339.30 424.07 333.00 C 424.72 322.64 429.39 313.10 434.05 304.01 C 437.02 297.94 439.09 291.48 441.17 285.06 C 442.06 282.13 443.51 279.33 443.80 276.25 C 441.51 275.86 438.79 275.29 436.74 276.71 C 434.71 278.82 433.63 281.62 432.05 284.04 C 430.93 285.97 429.36 287.74 428.96 289.99 C 429.61 292.66 431.15 295.16 431.02 297.99 C 431.28 302.38 428.41 306.58 424.60 308.55 C 420.64 309.45 415.68 309.53 412.70 306.29 C 409.90 303.73 410.33 299.05 406.97 296.98 C 404.34 295.20 403.38 292.00 401.41 289.64 C 400.23 287.20 399.63 284.54 399.09 281.90 C 398.24 273.27 400.82 264.64 405.53 257.44 C 407.84 254.42 406.90 250.50 407.07 247.00 C 406.91 241.49 410.05 236.56 413.70 232.71 C 417.85 228.39 424.13 227.38 428.76 223.77 C 430.55 222.21 431.81 220.16 433.35 218.36 C 437.23 213.54 442.36 209.99 447.13 206.12 C 452.87 201.45 459.82 198.75 466.35 195.41 C 468.46 194.26 471.06 193.33 472.11 190.96 C 471.10 188.09 469.09 185.65 468.41 182.64 C 465.73 174.90 467.35 165.27 473.81 159.85 C 480.27 154.63 488.81 152.54 497.01 153.01 C 501.67 152.84 506.06 154.74 509.99 157.06 C 512.65 158.69 514.38 161.45 517.04 163.06 C 519.44 162.51 521.98 161.58 523.66 159.71 C 524.25 156.84 524.01 153.81 525.15 151.06 C 526.53 147.74 527.86 144.08 530.95 141.96 C 534.41 139.41 537.52 136.37 541.34 134.35 C 550.48 128.88 560.22 124.55 569.66 119.65 C 575.81 116.74 582.14 113.75 588.98 113.02 C 593.99 112.41 599.10 113.92 603.20 116.80 C 605.35 118.34 606.55 120.79 608.39 122.65 C 609.87 123.58 611.57 122.56 612.99 121.99 C 617.32 119.80 622.10 118.29 626.98 118.19 C 631.34 118.26 635.11 120.62 638.81 122.63 C 641.13 120.32 642.64 117.27 645.28 115.26 C 647.81 113.30 650.78 112.02 653.70 110.74 C 661.77 107.16 670.33 104.76 678.99 103.06 Z" />
<path fill="#82554c" stroke="#82554c" stroke-width="0.09375" opacity="1.00" d=" M 903.25 367.24 C 906.96 363.92 912.63 362.72 917.25 364.73 C 921.03 366.43 922.61 370.60 923.66 374.32 C 924.16 377.39 924.02 380.56 924.92 383.57 C 923.92 391.30 921.93 399.03 918.23 405.93 C 913.55 414.17 908.76 422.40 902.69 429.71 C 898.91 433.66 893.72 437.02 887.99 436.06 C 882.26 435.52 879.79 428.99 879.98 424.00 C 881.36 415.94 887.49 409.99 890.69 402.70 C 894.13 396.64 893.90 389.48 895.70 382.91 C 896.73 377.13 898.98 371.40 903.25 367.24 Z" />
<path fill="#82554c" stroke="#82554c" stroke-width="0.09375" opacity="1.00" d=" M 643.88 401.68 C 645.64 400.33 647.22 398.19 649.72 398.47 C 653.19 398.90 654.18 403.21 653.36 406.09 C 651.24 413.45 647.21 420.14 645.61 427.66 C 644.70 431.05 644.41 434.55 643.88 438.00 C 643.50 440.46 641.82 442.80 642.54 445.36 C 644.12 451.20 644.81 457.42 643.51 463.39 C 643.14 464.49 642.70 466.65 641.04 466.02 C 637.00 465.09 632.46 463.41 630.63 459.36 C 627.29 452.93 626.89 445.55 625.29 438.60 C 624.93 433.39 624.65 428.17 624.79 422.95 C 626.04 416.87 629.07 411.29 631.58 405.64 C 632.56 404.02 633.02 401.64 634.90 400.84 C 635.27 400.91 636.02 401.03 636.40 401.10 C 638.86 401.49 641.37 401.89 643.88 401.68 Z" />
<path fill="#82554c" stroke="#82554c" stroke-width="0.09375" opacity="1.00" d=" M 447.86 437.58 C 451.97 436.49 456.49 437.53 459.76 440.22 C 462.98 443.62 462.38 448.94 461.19 453.09 C 457.54 461.85 453.05 470.49 446.28 477.27 C 441.99 481.33 438.19 486.02 433.03 489.04 C 424.98 494.63 414.65 497.75 404.96 495.10 C 402.33 494.74 401.62 491.49 402.32 489.34 C 404.15 483.40 408.90 479.15 412.42 474.25 C 414.02 472.10 416.79 471.39 419.00 470.07 C 429.16 464.63 438.55 456.24 442.17 444.99 C 443.20 441.97 445.66 439.77 447.86 437.58 Z" />
</g>
<g id="#fef7d9ff">
<path fill="#fef7d9" stroke="#fef7d9" stroke-width="0.09375" opacity="1.00" d=" M 831.97 126.41 C 840.88 135.05 849.03 144.46 856.70 154.21 C 857.93 155.78 859.22 157.32 860.17 159.09 C 856.12 156.29 853.84 151.84 850.92 148.03 C 848.76 144.94 844.87 144.05 841.96 141.91 C 836.91 138.14 833.50 132.47 831.97 126.41 Z" />
<path fill="#fef7d9" stroke="#fef7d9" stroke-width="0.09375" opacity="1.00" d=" M 205.59 551.58 C 206.97 550.31 208.91 550.50 210.62 550.61 C 212.74 553.23 214.62 556.04 216.64 558.74 C 212.63 557.14 208.50 555.88 204.44 554.42 C 204.78 553.44 205.16 552.50 205.59 551.58 Z" />
<path fill="#fef7d9" stroke="#fef7d9" stroke-width="0.09375" opacity="1.00" d=" M 189.88 565.85 C 190.57 564.74 191.08 563.47 192.11 562.61 C 193.33 562.42 194.55 562.42 195.79 562.60 C 197.17 564.46 199.49 565.75 200.11 568.12 C 196.62 568.39 192.95 567.47 189.88 565.85 Z" />
<path fill="#fef7d9" stroke="#fef7d9" stroke-width="0.09375" opacity="1.00" d=" M 255.37 579.95 C 255.16 575.67 255.62 571.41 256.60 567.25 C 256.26 569.54 258.83 569.61 260.35 570.35 C 258.64 573.23 257.27 576.28 256.36 579.50 C 256.11 579.62 255.61 579.84 255.37 579.95 Z" />
</g>
<g id="#5a3b35ff">
<path fill="#5a3b35" stroke="#5a3b35" stroke-width="0.09375" opacity="1.00" d=" M 676.53 280.55 C 680.02 276.18 685.05 272.12 691.00 272.73 C 694.18 272.42 696.53 274.98 699.54 275.44 C 699.22 284.11 695.94 292.43 691.91 300.02 C 690.61 302.58 689.13 305.05 687.20 307.19 C 685.05 309.53 684.12 312.66 682.19 315.16 C 673.19 327.50 664.01 339.70 655.16 352.14 C 653.10 355.68 649.88 358.31 647.75 361.79 C 645.96 364.18 644.87 366.97 643.49 369.59 C 638.96 376.53 634.64 383.63 630.81 390.98 C 627.84 395.83 625.30 400.94 623.18 406.22 C 617.37 418.31 613.30 431.19 610.34 444.26 C 609.03 452.11 607.46 460.00 607.72 468.00 C 607.87 475.35 607.21 482.78 608.51 490.05 C 609.89 502.63 614.02 514.82 619.93 525.97 C 620.56 527.29 621.42 528.98 620.29 530.31 C 610.88 531.68 602.58 536.65 593.62 539.51 C 588.40 541.09 582.44 541.68 577.32 539.50 C 576.47 535.57 579.81 532.59 581.38 529.34 C 583.62 524.69 585.36 519.82 587.26 515.02 C 589.84 505.88 591.95 496.51 592.37 487.00 C 593.68 479.07 592.98 471.00 593.14 463.01 C 593.32 459.30 592.37 455.68 592.23 452.00 C 592.37 446.96 591.15 442.04 590.95 437.02 C 588.60 422.69 586.15 408.38 584.09 394.01 C 582.40 385.58 583.91 376.23 579.03 368.67 C 581.22 368.33 583.43 368.06 585.62 367.65 C 585.02 365.09 584.10 362.62 583.61 360.05 C 582.20 352.59 583.21 344.95 582.41 337.44 C 581.76 331.69 581.34 325.87 581.89 320.09 C 582.47 314.32 586.09 308.52 591.85 306.79 C 593.68 311.46 597.15 315.21 599.27 319.72 C 602.20 327.76 603.29 336.45 602.92 344.99 C 602.69 351.39 600.73 357.59 600.73 364.01 C 600.69 367.85 601.03 371.82 599.74 375.52 C 597.26 376.43 598.65 379.08 598.73 380.95 C 599.25 383.93 598.79 386.96 598.67 389.96 C 598.32 396.08 599.39 402.21 601.27 408.03 C 601.36 408.76 602.71 410.96 603.08 409.01 C 606.46 402.00 609.20 394.68 612.67 387.70 C 616.07 381.42 619.90 375.33 622.68 368.73 C 626.11 360.73 627.63 352.10 629.52 343.65 C 632.09 331.17 634.87 318.63 635.11 305.84 C 635.84 303.65 636.59 301.47 637.23 299.25 C 638.63 297.71 640.06 296.05 642.00 295.18 C 644.98 294.14 648.05 295.25 650.94 296.06 C 650.04 302.72 649.38 309.43 647.58 315.93 C 644.75 329.98 640.66 343.77 638.89 358.01 C 638.63 359.31 638.97 360.43 639.91 361.38 C 644.34 358.86 644.81 353.43 645.93 348.98 C 646.59 345.54 648.10 342.35 649.00 338.98 C 651.25 327.64 654.10 316.41 655.66 304.95 C 655.85 305.70 656.23 307.22 656.42 307.97 C 658.08 306.42 659.46 304.59 660.75 302.72 C 665.88 295.24 671.08 287.80 676.53 280.55 Z" />
<path fill="#5a3b35" stroke="#5a3b35" stroke-width="0.09375" opacity="1.00" d=" M 368.95 281.68 C 371.88 280.79 374.93 280.19 377.97 279.81 C 383.51 280.94 389.30 283.86 391.81 289.21 C 393.40 294.21 391.64 299.59 389.16 303.99 C 385.06 309.86 378.15 313.48 375.16 320.17 C 372.43 323.76 368.38 326.24 365.95 330.05 C 366.04 330.46 366.23 331.27 366.32 331.67 C 369.41 332.84 372.74 331.71 375.84 331.09 C 374.81 333.48 373.42 335.90 370.97 337.07 C 366.30 339.64 359.82 336.20 358.98 331.03 C 358.50 327.84 359.33 324.58 360.68 321.70 C 362.97 317.16 367.84 314.71 370.44 310.40 C 371.41 308.75 370.64 306.86 369.81 305.35 C 366.38 306.74 362.93 309.00 359.06 308.14 C 355.14 307.73 352.74 304.37 350.49 301.55 C 348.71 303.67 347.03 306.55 343.93 306.71 C 339.38 306.76 335.14 304.82 331.02 303.12 C 327.39 301.55 323.43 300.31 320.63 297.36 C 318.32 295.31 316.94 292.02 317.71 288.95 C 318.16 286.99 319.75 285.65 321.08 284.26 C 324.90 284.25 328.46 285.90 332.09 286.91 C 336.68 288.19 340.61 290.97 344.77 293.20 C 347.01 294.30 348.45 296.38 350.05 298.21 C 353.84 299.23 354.02 294.62 355.45 292.38 C 358.94 287.74 363.84 284.33 368.95 281.68 Z" />
<path fill="#5a3b35" stroke="#5a3b35" stroke-width="0.09375" opacity="1.00" d=" M 224.52 321.39 C 227.27 311.08 233.47 301.74 241.80 295.10 L 242.73 295.14 C 243.65 297.32 245.34 299.51 244.79 302.01 C 243.93 306.12 240.50 308.87 237.98 311.99 C 234.98 315.51 233.05 319.74 230.55 323.58 C 228.68 326.54 225.35 328.36 221.92 328.72 C 219.15 329.01 216.68 326.95 215.37 324.69 C 214.20 321.44 215.34 317.94 216.75 314.97 C 218.70 311.01 220.82 307.06 223.83 303.80 C 222.79 310.22 217.18 315.27 217.10 322.01 C 217.22 323.68 217.83 326.24 219.99 326.14 C 222.55 326.40 223.94 323.49 224.52 321.39 Z" />
<path fill="#5a3b35" stroke="#5a3b35" stroke-width="0.09375" opacity="1.00" d=" M 181.56 314.81 C 182.19 319.18 182.45 323.60 182.79 328.00 C 182.22 331.98 177.88 334.65 174.02 334.18 C 170.54 333.89 166.88 335.04 163.58 333.47 C 161.38 332.37 158.48 333.03 156.98 334.96 C 157.25 338.31 158.83 341.67 157.80 345.04 C 156.85 347.66 154.24 349.08 152.17 350.72 C 149.35 350.63 146.33 347.99 146.71 345.02 C 146.93 340.96 145.22 337.05 145.81 333.00 C 146.18 329.75 146.94 326.49 148.50 323.60 C 149.47 321.55 151.84 320.62 153.99 320.67 C 158.31 320.62 162.86 320.19 166.93 321.97 C 170.22 323.18 173.14 325.21 176.40 326.50 C 178.30 327.31 181.32 326.65 180.85 324.03 C 181.44 321.63 179.09 320.14 178.66 318.00 C 179.47 316.80 180.51 315.78 181.56 314.81 Z" />
<path fill="#5a3b35" stroke="#5a3b35" stroke-width="0.09375" opacity="1.00" d=" M 386.26 320.89 C 390.29 324.28 392.44 329.21 395.88 333.11 C 398.50 336.14 401.11 339.38 404.72 341.30 C 407.91 343.03 411.35 344.43 414.13 346.83 C 416.81 349.19 418.72 352.24 420.94 355.02 C 424.21 359.35 428.44 362.80 432.13 366.74 C 425.84 366.20 419.29 365.44 413.60 362.49 C 410.68 361.12 409.32 358.04 407.38 355.66 C 401.16 346.51 394.63 337.59 388.46 328.41 C 387.46 327.12 386.32 325.95 385.30 324.69 C 383.73 323.49 385.50 321.91 386.26 320.89 Z" />
<path fill="#5a3b35" stroke="#5a3b35" stroke-width="0.09375" opacity="1.00" d=" M 931.87 350.99 C 933.97 347.66 937.76 345.29 941.78 345.48 C 941.13 346.94 940.06 348.32 940.17 350.00 C 939.86 362.33 940.21 374.66 940.09 387.00 C 939.94 391.58 940.48 396.21 939.69 400.75 C 938.78 406.27 939.84 411.93 938.59 417.42 C 937.09 436.31 934.03 455.51 925.81 472.77 C 923.33 478.85 918.82 483.71 914.77 488.76 C 909.27 493.31 903.61 497.70 897.75 501.78 C 892.69 504.85 887.24 507.17 882.02 509.92 C 857.15 520.99 831.40 530.14 805.02 536.89 C 788.31 541.79 771.13 544.81 753.95 547.53 C 747.31 548.39 740.71 549.62 734.02 550.06 C 729.59 551.01 725.02 550.57 720.59 551.44 C 717.08 552.04 713.52 551.71 710.00 551.90 C 699.08 553.48 688.00 552.64 677.00 552.84 C 666.64 552.33 655.77 550.92 646.90 545.12 C 643.80 542.11 639.57 540.58 636.77 537.23 C 629.43 528.96 623.79 519.18 620.49 508.62 C 620.07 506.67 620.02 504.64 619.34 502.76 C 616.20 494.94 614.93 486.41 615.18 478.01 C 615.29 471.67 614.79 465.31 615.35 458.99 C 617.01 446.67 619.00 434.11 624.79 422.95 C 624.65 428.17 624.93 433.39 625.29 438.60 C 624.31 441.65 623.41 444.75 623.03 447.95 C 621.92 456.26 620.93 464.61 620.78 473.00 C 620.69 478.01 620.29 483.15 621.78 488.01 C 623.27 492.81 625.23 497.46 626.51 502.33 C 626.98 503.84 627.27 505.48 628.14 506.84 C 629.09 507.61 630.24 508.05 631.36 508.55 C 639.37 511.63 646.62 516.38 654.70 519.33 C 669.01 525.46 684.43 528.64 699.90 529.86 C 724.59 531.36 748.93 525.67 772.68 519.58 C 787.19 515.64 801.64 511.52 816.04 507.19 C 819.57 506.17 823.13 505.15 826.37 503.39 C 834.01 499.34 841.89 495.75 849.37 491.42 C 867.44 482.26 885.06 470.59 896.65 453.62 C 906.56 439.20 915.30 423.38 918.23 405.93 C 921.93 399.03 923.92 391.30 924.92 383.57 C 926.67 378.23 926.95 372.59 927.72 367.06 C 928.43 361.59 928.62 355.68 931.87 350.99 Z" />
<path fill="#5a3b35" stroke="#5a3b35" stroke-width="0.09375" opacity="1.00" d=" M 569.26 380.98 C 569.83 377.08 572.05 373.73 574.41 370.69 C 574.97 373.43 574.90 376.23 575.24 379.00 C 579.03 405.64 583.03 432.25 585.98 459.00 C 586.21 467.33 586.15 475.67 586.06 484.00 C 585.93 490.75 584.12 497.31 583.56 504.01 C 583.11 507.76 581.52 511.24 579.52 514.39 C 577.63 521.52 573.40 527.61 570.14 534.12 C 568.42 536.69 566.47 539.11 564.27 541.27 C 560.85 544.50 557.79 548.24 553.60 550.51 C 548.64 553.16 543.65 556.12 538.02 557.03 C 533.37 557.80 528.73 558.89 524.00 558.82 C 487.00 558.92 450.00 558.90 413.00 559.05 C 408.34 559.53 403.70 560.10 399.01 559.93 C 388.92 560.91 378.85 562.34 368.98 564.64 C 347.53 569.95 326.75 577.83 305.01 581.90 C 299.09 583.19 293.01 582.96 286.99 582.93 C 283.33 582.82 279.59 582.27 276.29 580.61 C 276.94 577.09 278.46 573.80 279.51 570.40 C 280.58 567.12 282.11 563.55 280.85 560.11 C 278.50 560.97 278.07 563.96 275.83 564.96 C 276.52 562.99 277.47 561.09 277.85 559.03 C 277.70 557.27 276.58 555.80 276.25 554.09 C 283.69 550.76 291.82 548.80 300.01 549.18 C 310.01 548.87 319.97 549.89 329.91 550.90 C 335.11 551.48 340.25 550.27 345.35 549.45 C 361.85 546.81 378.37 544.22 395.02 542.67 C 400.35 542.29 405.63 541.27 411.00 541.28 C 413.28 541.19 415.62 541.44 417.86 540.88 C 420.21 539.57 422.18 537.61 424.72 536.63 C 429.30 534.80 434.28 534.53 439.10 533.74 C 454.79 531.30 470.65 529.35 485.94 524.91 C 491.05 523.40 496.20 522.06 501.25 520.38 C 517.35 514.69 532.48 506.38 546.19 496.22 C 549.38 494.07 552.46 491.65 556.02 490.12 C 558.66 488.98 561.73 489.50 564.33 488.34 C 567.63 484.54 568.75 479.45 570.87 475.00 C 571.85 472.73 573.35 470.56 573.35 468.00 C 573.44 461.33 573.13 454.67 573.05 448.01 C 573.00 436.95 571.26 426.02 570.15 415.05 C 569.61 410.39 571.00 405.74 570.29 401.09 C 569.36 394.44 568.38 387.68 569.26 380.98 Z" />
<path fill="#5a3b35" stroke="#5a3b35" stroke-width="0.09375" opacity="1.00" d=" M 438.38 398.30 C 439.36 393.65 440.25 388.57 443.55 384.94 C 444.25 385.21 445.63 385.77 446.32 386.04 C 450.74 392.46 450.11 400.61 449.87 408.01 C 449.05 416.37 445.15 423.98 441.31 431.30 C 439.26 434.80 436.52 437.81 433.77 440.75 C 431.80 442.46 433.75 444.95 433.92 447.01 C 434.22 448.65 432.62 449.62 431.74 450.73 C 429.54 452.90 428.08 455.78 425.41 457.46 C 420.97 460.66 416.46 464.18 411.12 465.68 C 411.90 462.13 414.61 459.43 416.43 456.37 C 418.33 452.80 423.79 454.29 425.63 450.66 C 429.48 444.19 431.89 436.99 433.66 429.71 C 434.55 427.17 432.38 425.23 431.22 423.26 C 436.16 415.88 436.67 406.76 438.38 398.30 Z" />
<path fill="#5a3b35" stroke="#5a3b35" stroke-width="0.09375" opacity="1.00" d=" M 290.48 409.03 C 292.42 406.05 295.67 404.26 299.00 403.24 C 302.60 402.40 306.33 402.61 310.01 402.66 C 316.78 402.76 323.63 403.68 329.98 406.14 C 334.33 407.77 337.77 411.51 339.15 415.95 C 340.36 419.53 342.29 423.04 342.04 426.94 C 341.84 430.84 342.11 434.78 341.60 438.65 C 340.85 440.96 338.27 441.14 336.24 441.25 C 335.60 432.34 333.40 423.33 328.10 416.00 C 324.75 410.80 318.68 408.09 312.73 407.28 C 305.25 406.03 297.91 408.66 290.48 409.03 Z" />
<path fill="#5a3b35" stroke="#5a3b35" stroke-width="0.09375" opacity="1.00" d=" M 205.79 411.81 C 207.77 410.09 210.37 409.41 212.84 408.69 C 215.32 411.70 217.12 416.84 214.16 420.16 C 212.01 422.45 208.86 423.45 206.67 425.68 C 205.07 427.42 204.06 429.67 202.14 431.12 C 195.86 436.10 187.63 437.43 180.97 441.77 C 177.25 443.68 173.87 446.25 169.95 447.75 C 165.68 449.35 162.18 452.40 158.03 454.24 C 155.32 455.40 153.78 458.13 152.69 460.73 C 151.73 462.96 153.18 466.19 150.82 467.73 C 149.19 467.55 147.68 466.63 146.79 465.26 C 144.35 461.77 141.54 458.32 137.66 456.40 C 133.04 454.05 128.23 451.70 123.01 451.22 C 119.70 450.91 116.40 449.84 113.06 450.49 C 110.07 450.95 107.04 451.59 104.01 451.14 C 102.23 450.31 103.30 447.44 101.65 446.42 C 99.33 444.56 96.03 445.12 93.74 446.75 C 92.21 447.41 90.88 449.16 89.10 448.86 C 89.95 446.37 92.04 444.50 92.75 441.98 C 92.76 440.63 93.25 438.87 92.21 437.82 C 90.56 437.02 88.78 436.53 87.10 435.78 C 88.23 433.80 89.94 432.12 91.96 431.07 C 99.24 436.30 108.65 435.25 117.05 436.60 C 122.93 437.27 128.31 439.85 133.99 441.27 C 138.50 442.42 143.22 441.65 147.65 440.50 C 151.22 439.55 154.86 438.76 158.25 437.26 C 163.98 434.47 168.51 429.58 174.63 427.54 C 178.81 426.09 183.17 425.22 187.27 423.55 C 190.82 425.94 194.52 428.63 198.95 428.91 C 203.28 427.82 205.67 423.61 208.41 420.44 C 209.53 418.81 211.55 417.26 210.95 415.03 C 210.85 413.54 209.35 412.96 208.05 413.07 C 204.21 414.75 202.97 419.33 199.66 421.66 C 197.84 422.46 195.81 421.89 193.94 421.58 C 199.09 420.00 201.71 414.93 205.79 411.81 Z" />
<path fill="#5a3b35" stroke="#5a3b35" stroke-width="0.09375" opacity="1.00" d=" M 406.75 440.76 C 413.63 437.18 420.14 432.95 426.63 428.71 C 427.38 432.19 425.44 435.37 424.57 438.63 C 423.70 440.88 423.29 443.65 421.14 445.10 C 415.84 448.80 411.53 453.72 407.94 459.05 C 405.80 462.62 401.64 463.95 398.67 466.66 C 397.16 468.16 394.26 467.03 394.07 464.95 C 393.54 462.70 393.71 459.93 391.69 458.38 C 390.26 458.15 388.77 458.10 387.37 458.43 C 385.20 460.23 383.23 462.28 380.91 463.90 C 378.37 465.94 375.23 466.95 372.37 468.44 C 369.71 469.73 366.98 471.14 363.97 471.29 L 363.26 470.78 C 363.21 466.61 366.33 462.68 365.62 458.34 C 364.58 456.08 361.81 455.65 359.75 456.73 C 353.58 459.75 347.57 463.20 340.97 465.25 C 340.50 465.15 339.55 464.97 339.08 464.88 C 341.51 461.11 345.55 458.69 347.81 454.77 C 349.73 452.26 349.89 448.65 352.36 446.58 C 355.90 447.89 358.26 450.74 360.40 453.71 C 365.00 453.04 368.34 449.11 372.71 447.66 C 379.49 444.92 386.91 446.45 394.00 446.21 C 398.81 446.12 402.62 442.80 406.75 440.76 Z" />
<path fill="#5a3b35" stroke="#5a3b35" stroke-width="0.09375" opacity="1.00" d=" M 68.75 518.26 C 64.07 509.78 63.53 498.79 68.46 490.32 C 69.83 492.36 71.99 493.61 73.75 495.28 C 75.63 497.44 76.29 500.33 77.21 502.98 C 80.01 512.67 86.33 520.75 92.33 528.66 C 95.31 532.64 98.54 536.49 102.67 539.33 C 110.33 545.56 120.37 547.48 129.90 548.78 C 143.85 550.89 158.17 550.23 171.91 547.12 C 176.02 546.20 180.30 545.39 184.48 546.44 C 183.84 547.57 183.21 548.71 182.58 549.85 C 181.21 551.16 178.71 551.01 177.93 552.97 C 176.81 554.51 177.45 556.38 177.47 558.11 C 175.77 559.96 174.86 562.28 174.50 564.75 C 171.29 567.22 166.76 565.76 163.00 566.21 C 151.02 567.41 139.08 569.88 126.98 569.05 C 115.32 567.52 104.36 562.11 95.34 554.66 C 92.50 552.17 89.99 549.34 87.26 546.74 C 79.41 538.43 74.59 527.94 68.75 518.26 Z" />
</g>
<g id="#d0887bff">
<path fill="#d0887b" stroke="#d0887b" stroke-width="0.09375" opacity="1.00" d=" M 382.41 338.70 C 381.41 336.43 380.54 334.09 380.30 331.61 C 386.94 340.13 392.07 349.73 398.72 358.24 C 400.86 361.11 402.49 364.38 405.09 366.90 C 407.60 369.35 410.80 370.95 414.08 372.11 C 420.16 374.29 426.52 375.90 433.01 376.00 C 434.64 376.06 436.29 376.00 437.92 376.29 C 441.09 378.01 444.12 380.56 445.17 384.16 C 439.69 380.17 432.82 379.85 426.43 378.47 C 420.34 377.23 414.82 374.28 409.27 371.62 C 406.01 370.01 402.71 368.35 399.95 365.95 C 396.93 363.28 395.04 359.63 392.24 356.75 C 389.87 354.14 386.84 351.97 385.39 348.65 C 384.09 345.42 383.83 341.88 382.41 338.70 Z" />
</g>
<g id="#593b35ff">
<path fill="#593b35" stroke="#593b35" stroke-width="0.09375" opacity="1.00" d=" M 655.57 365.63 C 657.09 363.72 657.85 361.06 660.20 359.94 C 658.43 364.66 655.43 368.75 653.31 373.29 C 650.23 379.23 646.74 384.95 643.90 391.02 C 641.95 394.70 640.62 399.37 636.40 401.10 C 636.02 401.03 635.27 400.91 634.90 400.84 C 638.19 390.46 644.27 381.26 650.19 372.21 C 651.69 369.79 653.82 367.86 655.57 365.63 Z" />
<path fill="#593b35" stroke="#593b35" stroke-width="0.09375" opacity="1.00" d=" M 332.72 454.05 C 337.23 452.86 339.27 447.73 343.98 446.78 C 343.13 448.28 342.04 449.62 340.99 451.00 C 339.35 453.10 338.77 455.91 336.73 457.73 C 334.17 460.22 331.46 462.59 329.47 465.59 C 327.38 468.58 323.60 470.95 323.74 475.01 C 325.01 478.11 328.88 477.55 331.36 476.40 C 338.34 473.35 345.45 470.62 352.40 467.48 C 353.48 467.08 354.60 467.00 355.75 467.24 C 356.13 471.29 354.98 475.36 354.31 479.33 C 352.00 480.20 349.41 479.73 347.00 479.87 C 342.63 479.66 338.37 480.98 334.00 480.79 C 326.99 480.63 320.18 483.15 313.18 482.84 C 316.11 478.17 318.30 473.04 321.79 468.74 C 324.15 465.84 326.22 462.72 327.94 459.40 C 329.39 457.50 330.94 455.66 332.72 454.05 Z" />
</g>
<g id="#774e46ff">
<path fill="#774e46" stroke="#774e46" stroke-width="0.09375" opacity="1.00" d=" M 948.06 368.09 C 950.69 367.87 953.52 367.70 955.98 368.85 C 958.34 370.10 960.16 372.36 960.83 374.96 C 957.78 375.52 954.73 374.33 952.04 373.01 C 950.13 371.98 947.54 370.72 948.06 368.09 Z" />
<path fill="#774e46" stroke="#774e46" stroke-width="0.09375" opacity="1.00" d=" M 385.29 468.33 C 385.88 468.26 387.06 468.11 387.65 468.04 C 388.32 470.03 389.09 472.00 389.87 473.97 C 387.07 475.53 383.80 475.86 380.72 476.57 C 375.60 477.70 370.37 478.24 365.15 478.70 C 369.09 476.14 373.76 475.11 377.81 472.77 C 380.35 471.38 382.68 469.60 385.29 468.33 Z" />
</g>
<g id="#ab7c70ff">
<path fill="#ab7c70" stroke="#ab7c70" stroke-width="0.09375" opacity="1.00" d=" M 214.84 395.63 C 215.59 395.79 217.08 396.11 217.83 396.27 C 219.89 399.32 222.47 401.91 225.60 403.88 C 227.64 410.26 229.92 417.21 235.65 421.28 C 241.01 424.85 247.73 425.37 254.00 425.48 C 262.65 425.70 271.21 423.50 279.05 419.93 C 284.40 417.53 290.17 416.33 295.89 415.15 C 301.50 413.94 307.33 413.28 313.05 414.04 C 316.75 414.50 320.40 416.31 322.43 419.54 C 325.85 424.78 327.91 430.87 329.01 437.01 C 330.12 442.19 326.30 446.79 326.88 451.97 C 327.14 454.42 326.36 457.28 327.94 459.40 C 326.22 462.72 324.15 465.84 321.79 468.74 C 318.30 473.04 316.11 478.17 313.18 482.84 L 312.45 482.69 C 309.44 481.89 306.28 481.75 303.22 482.37 C 298.96 482.99 295.19 485.30 290.92 485.89 C 294.24 483.17 298.15 481.29 301.45 478.55 C 304.78 476.17 306.81 472.52 309.78 469.76 C 311.44 468.11 313.35 466.65 314.61 464.65 C 315.98 462.14 316.41 458.77 314.67 456.33 C 313.71 454.50 311.60 454.02 309.86 453.29 C 310.58 449.75 311.53 446.27 312.19 442.73 C 314.00 442.93 314.75 444.66 315.87 445.84 C 317.19 446.32 318.94 446.01 319.59 444.63 C 321.29 441.89 319.59 438.50 317.39 436.64 C 314.58 434.39 310.98 433.57 307.63 432.51 C 303.88 431.28 299.87 430.99 295.97 431.42 C 294.58 431.50 293.46 432.68 293.22 434.00 C 293.44 435.50 295.09 436.14 296.39 436.45 C 299.36 437.13 302.27 438.07 305.08 439.29 C 305.26 445.84 302.56 452.05 299.71 457.81 C 297.83 461.70 294.26 464.28 291.49 467.48 C 288.39 471.11 284.60 474.23 280.34 476.41 C 272.59 479.46 265.23 483.53 257.17 485.80 C 253.81 486.70 250.49 488.12 246.96 488.13 C 243.55 488.27 241.04 484.45 237.53 486.16 C 236.91 483.99 236.65 481.60 235.23 479.78 C 233.59 478.05 231.51 476.81 229.82 475.14 C 234.36 468.52 239.46 462.21 243.11 455.03 C 244.11 453.15 243.78 450.97 243.90 448.94 C 244.53 446.84 246.43 445.28 246.56 443.01 C 246.67 440.87 247.11 438.27 245.36 436.63 C 242.12 434.17 237.84 434.18 233.97 434.39 C 227.95 434.65 222.37 437.15 216.55 438.47 C 204.45 441.42 192.32 444.71 181.06 450.16 C 178.14 451.60 175.46 453.94 174.28 457.05 C 173.17 461.08 173.55 465.39 174.45 469.42 C 175.15 471.67 176.15 474.40 178.43 475.43 C 181.21 475.60 183.78 476.64 186.41 477.42 C 194.57 477.79 202.76 477.82 210.90 477.07 C 211.16 479.28 211.16 481.67 212.48 483.59 C 214.44 486.94 217.89 488.91 220.79 491.35 C 218.98 493.18 216.56 494.16 214.32 495.33 C 211.13 496.94 207.75 498.52 204.08 498.35 C 201.96 496.89 199.34 496.77 196.99 495.92 C 192.03 493.54 187.81 489.87 184.29 485.68 C 178.33 478.50 169.20 475.34 161.33 470.86 C 160.13 468.62 158.97 466.04 159.47 463.45 C 160.75 460.50 163.71 458.86 166.41 457.42 C 175.60 452.68 184.06 446.39 193.95 443.11 C 200.09 440.78 205.62 436.89 209.97 431.98 C 214.34 428.43 219.49 425.08 221.51 419.54 C 222.57 414.39 220.18 409.51 218.33 404.86 C 217.19 401.77 215.15 398.98 214.84 395.63 Z" />
<path fill="#ab7c70" stroke="#ab7c70" stroke-width="0.09375" opacity="1.00" d=" M 277.37 492.45 C 277.80 492.36 278.64 492.17 279.07 492.08 C 275.80 495.18 271.76 497.36 268.59 500.61 C 265.70 502.82 263.96 506.22 260.91 508.21 C 257.24 507.02 254.03 504.76 250.37 503.53 C 247.90 502.75 246.60 500.31 245.98 497.97 C 248.64 498.34 251.30 499.17 254.00 498.70 C 259.69 497.89 265.31 496.65 271.03 496.04 C 273.73 496.05 274.87 492.96 277.37 492.45 Z" />
</g>
<g id="#00000089">
</g>
<g id="#00000026">
</g>
<g id="#846056ff">
<path fill="#846056" stroke="#846056" stroke-width="0.09375" opacity="1.00" d=" M 234.54 457.50 C 238.47 455.54 240.50 451.51 243.90 448.94 C 243.78 450.97 244.11 453.15 243.11 455.03 C 239.46 462.21 234.36 468.52 229.82 475.14 C 231.51 476.81 233.59 478.05 235.23 479.78 C 236.65 481.60 236.91 483.99 237.53 486.16 L 237.70 487.00 C 235.04 486.40 232.32 485.59 230.20 483.78 C 227.03 481.25 223.39 478.80 221.84 474.87 C 222.30 473.16 224.39 472.71 225.64 471.68 C 230.77 468.77 233.70 463.18 234.54 457.50 Z" />
<path fill="#846056" stroke="#846056" stroke-width="0.09375" opacity="1.00" d=" M 308.38 456.37 C 308.93 455.47 309.04 453.64 309.86 453.29 C 311.60 454.02 313.71 454.50 314.67 456.33 C 316.41 458.77 315.98 462.14 314.61 464.65 C 313.35 466.65 311.44 468.11 309.78 469.76 C 306.81 472.52 304.78 476.17 301.45 478.55 C 298.15 481.29 294.24 483.17 290.92 485.89 C 295.19 485.30 298.96 482.99 303.22 482.37 C 306.28 481.75 309.44 481.89 312.45 482.69 C 310.87 484.80 307.87 484.63 305.63 485.58 C 289.51 491.18 277.18 503.60 265.71 515.72 C 259.18 522.16 253.49 529.68 250.54 538.46 C 248.68 538.51 246.71 537.95 245.02 538.99 C 242.16 540.39 238.66 541.87 235.61 540.56 C 233.49 534.46 228.05 530.60 223.21 526.76 C 219.52 524.00 215.79 521.21 211.53 519.40 C 210.97 517.29 210.88 515.07 210.07 513.04 C 209.33 510.88 208.06 508.82 208.22 506.47 C 217.89 506.32 226.61 501.68 234.79 496.99 C 235.07 499.62 235.01 502.33 235.81 504.88 C 238.22 513.61 246.96 520.13 256.02 519.89 C 258.43 519.94 258.68 516.86 257.78 515.22 C 254.56 512.93 250.47 512.20 247.42 509.62 C 242.78 506.31 240.27 499.44 243.15 494.27 C 246.42 494.16 249.72 494.60 252.98 494.01 C 261.33 492.75 269.01 489.03 276.62 485.57 C 279.86 484.03 283.59 483.64 286.58 481.56 C 295.40 474.77 304.35 467.09 308.38 456.37 M 277.37 492.45 C 274.87 492.96 273.73 496.05 271.03 496.04 C 265.31 496.65 259.69 497.89 254.00 498.70 C 251.30 499.17 248.64 498.34 245.98 497.97 C 246.60 500.31 247.90 502.75 250.37 503.53 C 254.03 504.76 257.24 507.02 260.91 508.21 C 263.96 506.22 265.70 502.82 268.59 500.61 C 271.76 497.36 275.80 495.18 279.07 492.08 C 278.64 492.17 277.80 492.36 277.37 492.45 Z" />
<path fill="#846056" stroke="#846056" stroke-width="0.09375" opacity="1.00" d=" M 210.90 477.07 C 212.31 476.33 213.94 476.07 215.52 476.26 C 218.60 482.32 223.33 487.54 228.95 491.34 C 228.64 492.75 226.94 493.07 225.86 493.74 C 219.06 496.68 211.70 500.57 204.08 498.35 C 207.75 498.52 211.13 496.94 214.32 495.33 C 216.56 494.16 218.98 493.18 220.79 491.35 C 217.89 488.91 214.44 486.94 212.48 483.59 C 211.16 481.67 211.16 479.28 210.90 477.07 Z" />
</g>
<g id="#583a35ff">
<path fill="#583a35" stroke="#583a35" stroke-width="0.09375" opacity="1.00" d=" M 343.99 486.82 C 349.28 485.90 354.65 486.27 359.99 486.14 C 363.42 486.08 366.89 485.88 370.30 486.44 C 366.06 488.44 361.70 490.41 357.00 490.98 C 352.69 491.48 348.33 491.22 344.00 491.25 C 338.81 491.13 333.20 491.56 328.64 488.59 C 333.34 485.95 338.92 487.70 343.99 486.82 Z" />
</g>
<g id="#9c766bff">
<path fill="#9c766b" stroke="#9c766b" stroke-width="0.09375" opacity="1.00" d=" M 196.59 540.11 C 197.53 537.10 197.84 533.51 200.49 531.42 C 206.70 533.90 212.45 537.56 216.82 542.67 C 215.71 542.88 214.61 543.16 213.55 543.53 C 210.58 541.55 208.03 538.98 204.87 537.29 C 203.75 536.66 201.43 536.41 200.98 538.00 C 200.36 539.80 198.05 539.60 196.59 540.11 Z" />
</g>
<g id="#9d776bff">
<path fill="#9d776b" stroke="#9d776b" stroke-width="0.09375" opacity="1.00" d=" M 192.33 542.30 C 193.11 541.68 194.05 541.47 195.02 541.46 C 195.25 542.80 195.06 544.79 196.75 545.31 C 200.07 546.36 203.40 547.42 206.85 547.98 C 208.43 548.26 209.49 549.58 210.62 550.61 C 208.91 550.50 206.97 550.31 205.59 551.58 C 205.16 552.50 204.78 553.44 204.44 554.42 C 197.37 552.21 190.13 549.81 182.58 549.85 C 183.21 548.71 183.84 547.57 184.48 546.44 C 187.19 545.25 189.87 543.95 192.33 542.30 Z" />
<path fill="#9d776b" stroke="#9d776b" stroke-width="0.09375" opacity="1.00" d=" M 257.30 542.55 C 258.40 543.08 260.09 543.04 260.65 544.33 C 261.42 546.32 261.61 548.46 262.20 550.51 C 263.89 551.03 265.68 551.42 267.46 551.33 C 269.28 550.49 270.76 548.44 273.00 549.05 C 275.43 549.35 275.79 552.18 276.25 554.09 C 276.58 555.80 277.70 557.27 277.85 559.03 C 277.47 561.09 276.52 562.99 275.83 564.96 C 274.40 569.66 271.41 573.75 270.52 578.62 L 270.27 578.41 C 269.59 577.83 268.92 577.26 268.26 576.68 C 267.28 572.37 269.13 568.19 269.23 563.96 C 265.51 564.80 262.96 567.82 260.35 570.35 C 258.83 569.61 256.26 569.54 256.60 567.25 C 257.42 563.15 258.75 559.19 259.80 555.16 C 255.19 555.84 252.31 559.99 249.07 562.91 C 248.04 562.50 247.02 562.09 246.00 561.68 C 248.65 554.70 253.17 548.68 257.30 542.55 Z" />
<path fill="#9d776b" stroke="#9d776b" stroke-width="0.09375" opacity="1.00" d=" M 174.50 564.75 C 174.86 562.28 175.77 559.96 177.47 558.11 C 182.95 559.09 188.48 559.76 194.00 560.49 C 195.16 560.40 195.80 561.57 195.79 562.60 C 194.55 562.42 193.33 562.42 192.11 562.61 C 191.08 563.47 190.57 564.74 189.88 565.85 C 187.22 565.60 184.72 564.51 182.05 564.36 C 179.53 564.16 177.01 564.58 174.50 564.75 Z" />
</g>
<g id="#cdc2acff">
<path fill="#cdc2ac" stroke="#cdc2ac" stroke-width="0.09375" opacity="1.00" d=" M 213.55 543.53 C 214.61 543.16 215.71 542.88 216.82 542.67 C 219.04 545.12 221.02 547.89 222.15 551.03 C 218.90 549.11 216.45 545.97 213.55 543.53 Z" />
</g>
<g id="#d4c9b2ff">
<path fill="#d4c9b2" stroke="#d4c9b2" stroke-width="0.09375" opacity="1.00" d=" M 243.18 571.94 C 243.33 568.38 244.35 564.83 246.00 561.68 C 247.02 562.09 248.04 562.50 249.07 562.91 C 247.36 566.07 245.04 568.86 243.18 571.94 Z" />
</g>
<g id="#fdf6d8ff">
<path fill="#fdf6d8" stroke="#fdf6d8" stroke-width="0.09375" opacity="1.00" d=" M 267.53 586.94 C 267.50 583.59 266.48 579.67 268.26 576.68 C 268.92 577.26 269.59 577.83 270.27 578.41 C 269.31 581.23 268.98 584.30 267.53 586.94 Z" />
</g>
</svg>
